<svg width="159" height="159" viewBox="0 0 159 159" fill="none" xmlns="http://www.w3.org/2000/svg">
<g opacity="0.1">
<path d="M112.576 0.137187L91.4764 67.551L158.89 46.4516V112.548L91.4764 91.449L112.576 158.863H46.479L67.5784 91.449L0.164625 112.548V46.4516L67.5784 67.551L46.479 0.137187H112.576ZM112.768 0H112.576H46.479H46.287L46.3418 0.192062L67.3589 67.3315L0.192062 46.3144L0 46.2595V46.4516V112.548V112.74L0.192062 112.686L67.3315 91.6685L46.3144 158.808L46.2595 159H46.4516H112.548H112.74L112.686 158.808L91.6685 91.6685L158.808 112.686L159 112.74V112.548V46.4516V46.2595L158.808 46.3144L91.6685 67.3315L112.713 0.192062L112.768 0Z" fill="#060313"/>
<path d="M66.7272 70.2403L71.858 71.8317L71.1171 71.1183L2.49609 49.6348L2.96253 50.2933L66.7272 70.2403Z" fill="#060313"/>
<path d="M2.96253 50.2933L2.49609 49.6348V109.366L2.96253 108.735V50.2933Z" fill="#060313"/>
<path d="M66.7272 88.7869L2.96253 108.734L2.49609 109.365L71.1171 87.9089L71.858 87.1681L66.7272 88.7869Z" fill="#060313"/>
<path d="M70.2402 66.7003L50.3206 2.96311L49.6621 2.46924L71.1182 71.1177L71.859 71.8311L70.2402 66.7003Z" fill="#060313"/>
<path d="M49.6621 2.46924L50.3206 2.96311H108.735L109.393 2.46924H49.6621Z" fill="#060313"/>
<path d="M88.7828 66.7003L87.1914 71.8311L87.9048 71.1177L109.388 2.46924L108.73 2.96311L88.7828 66.7003Z" fill="#060313"/>
<path d="M50.3206 156.064L49.6621 156.531H109.393L108.735 156.064H50.3206Z" fill="#060313"/>
<path d="M156.558 49.6348L156.064 50.2933V108.735L156.558 109.366V49.6348Z" fill="#060313"/>
<path d="M87.9048 71.1183L87.1914 71.8317L92.3222 70.2403L156.059 50.2933L156.553 49.6348L87.9048 71.1183Z" fill="#060313"/>
<path d="M92.3222 88.7878L87.1914 87.1689L87.9048 87.9098L156.553 109.366L156.059 108.735L92.3222 88.7878Z" fill="#060313"/>
<path d="M70.2402 92.2998L71.859 87.1689L71.1182 87.9098L49.6621 156.531L50.3206 156.064L70.2402 92.2998Z" fill="#060313"/>
<path d="M108.73 156.064L109.388 156.531L87.9048 87.9098L87.1914 87.1689L88.7828 92.2998L108.73 156.064Z" fill="#060313"/>
<path d="M68.2942 68.2641L67.5534 67.5507L0.166992 46.4513L0.633429 47.1098L2.49917 49.634L71.1202 71.1176L68.2942 68.2641Z" fill="#060313"/>
<path d="M2.49917 109.366L0.633429 111.89L0.166992 112.549L67.5534 91.4768L68.2942 90.736L71.1202 87.9099L2.49917 109.366Z" fill="#060313"/>
<path d="M0.633429 47.1098L0.166992 46.4513V112.548L0.633429 111.89L2.49917 109.365V49.634L0.633429 47.1098Z" fill="#060313"/>
<path d="M111.911 0.630593L109.387 2.4689L87.9033 71.1174L90.7568 68.2639L91.4702 67.5505L112.57 0.136719L111.911 0.630593Z" fill="#060313"/>
<path d="M71.1144 71.1174L49.6583 2.4689L47.1341 0.630593L46.4756 0.136719L67.5475 67.5505L68.2884 68.2639L71.1144 71.1174Z" fill="#060313"/>
<path d="M112.572 0.136719H46.4756L47.1341 0.630593L49.6583 2.4689H109.39L111.914 0.630593L112.572 0.136719Z" fill="#060313"/>
<path d="M158.884 46.4513L91.4702 67.5507L90.7568 68.2641L87.9033 71.1176L156.552 49.634L158.884 46.4513Z" fill="#060313"/>
<path d="M158.884 112.549L158.39 111.89L156.552 109.366L87.9033 87.9099L90.7568 90.736L91.4702 91.4768L158.884 112.549Z" fill="#060313"/>
<path d="M156.554 49.634V109.365L158.392 111.89L158.886 112.548V46.4513L156.554 49.634Z" fill="#060313"/>
<path d="M112.57 158.863L91.4702 91.4768L90.7568 90.736L87.9033 87.9099L109.387 156.531L111.911 158.397L112.57 158.863Z" fill="#060313"/>
<path d="M68.2884 90.736L58.1914 123.002L68.2884 90.736L67.5475 91.4768L46.4756 158.863L47.1341 158.397L49.6583 156.531L71.1144 87.9099L68.2884 90.736Z" fill="#060313"/>
<path d="M111.914 158.397L109.39 156.531H49.6583L47.1341 158.397L46.4756 158.863H112.572L111.914 158.397Z" fill="#060313"/>
<path d="M112.249 107.774L107.722 112.301L45.4941 50.0455L50.0213 45.5458L112.249 107.774Z" fill="#060313"/>
<path d="M46.4198 50.9788L50.9196 46.4516L50.8373 45.9303L45.8711 50.8965L46.4198 50.9788Z" fill="#060313"/>
<path d="M38.607 51.1156C45.4866 51.1156 51.0636 45.5386 51.0636 38.659C51.0636 31.7794 45.4866 26.2024 38.607 26.2024C31.7274 26.2024 26.1504 31.7794 26.1504 38.659C26.1504 45.5386 31.7274 51.1156 38.607 51.1156Z" fill="#060313"/>
<g opacity="0.1">
<path d="M46.8147 47.7961C43.2478 50.9514 38.4188 51.6374 34.3306 49.1406C33.1508 48.3998 32.0808 46.973 32.7393 46.3145C33.3978 45.656 35.5379 46.0127 36.7177 46.7535C40.7235 49.6344 44.894 49.7442 47.3085 47.3297C47.1439 47.4943 46.9793 47.6315 46.8147 47.7961Z" fill="#060313"/>
<path d="M36.7177 46.7529C35.6202 45.9298 34.7696 44.311 35.5928 43.4878C36.4159 42.6647 38.5011 43.0488 39.6261 43.8445C43.3027 47.0547 46.2934 48.3443 47.3086 47.3291C44.8941 49.7436 40.7236 49.6338 36.7177 46.7529Z" fill="#060313"/>
<path d="M31.4739 49.3593C31.0624 49.085 30.6782 48.3716 30.8154 48.2344C31.1996 47.8503 33.1202 48.4265 34.3274 49.1398C38.4156 51.6367 43.2446 50.9233 46.8115 47.7954C46.7566 47.8503 46.7017 47.9052 46.6468 47.96C46.2901 48.2618 45.9335 48.5362 45.5768 48.8106C41.2417 51.8287 35.8639 52.2952 31.4739 49.3593Z" fill="#060313"/>
<path d="M49.3374 31.4974C49.063 31.0858 48.3496 30.7017 48.2124 30.8389C47.8283 31.223 48.4045 33.1436 49.1179 34.3509C51.6147 38.439 50.9013 43.268 47.7734 46.8349C47.8283 46.78 47.8832 46.7252 47.9381 46.6703C48.2399 46.3136 48.5142 45.9569 48.7886 45.6002C51.8067 41.2925 52.2457 35.8874 49.3374 31.4974Z" fill="#060313"/>
<path d="M47.7442 46.8632C50.8995 43.2963 51.5854 38.4674 49.0886 34.3792C48.3478 33.1994 46.9759 32.1842 46.3174 32.8427C45.6589 33.5012 45.9607 35.5864 46.7015 36.7662C49.5825 40.7721 49.6922 44.9426 47.2777 47.3571C47.4423 47.1925 47.5795 47.0278 47.7442 46.8632Z" fill="#060313"/>
<path d="M46.7046 36.7384C45.8815 35.6409 44.2901 34.8178 43.467 35.6409C42.6439 36.464 42.9731 38.5218 43.7963 39.6193C47.0065 43.296 48.296 46.2866 47.2808 47.3018C49.6953 44.9148 49.5856 40.7443 46.7046 36.7384Z" fill="#060313"/>
<path d="M47.3109 47.3292C46.2957 48.3444 43.305 47.0274 39.6284 43.8447C38.6681 42.8843 38.3663 40.7442 39.5461 39.5644C40.7259 38.3846 42.8386 38.6864 43.7989 39.6467C47.0091 43.3233 48.2986 46.314 47.3109 47.3292Z" fill="#060313"/>
<path d="M29.47 30.4277C26.3147 33.9946 25.6287 38.8236 28.1255 42.9118C28.8664 44.0916 30.2931 45.1616 30.9516 44.5031C31.6101 43.8446 31.2534 41.7045 30.5126 40.5247C27.6317 36.5188 27.5219 32.3483 29.9364 29.9338C29.7444 30.0985 29.6072 30.2631 29.47 30.4277Z" fill="#060313"/>
<path d="M30.4892 40.5526C31.3124 41.6501 32.9312 42.5007 33.7543 41.6776C34.5774 40.8545 34.1933 38.7692 33.3976 37.6443C30.1874 33.9677 28.8979 30.977 29.9131 29.9618C27.4986 32.3763 27.6083 36.5468 30.4892 40.5526Z" fill="#060313"/>
<path d="M27.8808 45.7926C28.1551 46.2042 28.8685 46.5883 29.0057 46.4511C29.3898 46.067 28.8136 44.1464 28.1003 42.9391C25.6035 38.8509 26.3168 34.0219 29.4447 30.4551C29.3898 30.51 29.3349 30.5648 29.2801 30.6197C28.9783 30.9764 28.7039 31.3331 28.4295 31.6898C25.4114 35.9974 24.945 41.4026 27.8808 45.7926Z" fill="#060313"/>
<path d="M45.7409 27.9035C46.1524 28.1779 46.5365 28.8913 46.3994 29.0285C46.0152 29.4126 44.0946 28.8364 42.8874 28.123C38.7992 25.6262 33.9702 26.3396 30.4033 29.4675C30.4582 29.4126 30.5131 29.3577 30.5679 29.3028C30.9246 29.001 31.2813 28.7267 31.638 28.4523C35.9731 25.4616 41.3509 24.9952 45.7409 27.9035Z" fill="#060313"/>
<path d="M30.3757 29.5221C33.9426 26.3668 38.7716 25.6809 42.8597 28.1777C44.0396 28.9185 45.0547 30.2904 44.3962 30.9489C43.7377 31.6073 41.6525 31.3055 40.4727 30.5647C36.4668 27.6838 32.2963 27.574 29.8818 29.9885C30.0739 29.7965 30.2111 29.6593 30.3757 29.5221Z" fill="#060313"/>
<path d="M40.4999 30.5371C41.5974 31.3602 42.4206 32.9516 41.5974 33.7747C40.7743 34.5978 38.7165 34.2686 37.619 33.4455C33.9424 30.2353 30.9517 28.9457 29.9365 29.9609C32.3236 27.5464 36.4941 27.6562 40.4999 30.5371Z" fill="#060313"/>
<path d="M29.9116 29.9611C28.8964 30.9763 30.2134 33.967 33.3962 37.6436C34.3565 38.6039 36.4966 38.9057 37.6764 37.7259C38.8562 36.5461 38.5544 34.4334 37.5941 33.4731C33.9175 30.2355 30.9268 28.9459 29.9116 29.9611Z" fill="#060313"/>
</g>
<path d="M47.219 48.1798C43.6521 51.3351 38.8231 52.021 34.7349 49.5242C33.5551 48.7834 32.485 47.3567 33.1435 46.6982C33.802 46.0397 35.9422 46.3964 37.122 47.1372C41.1278 50.0181 45.2983 50.1279 47.7128 47.7134C47.5208 47.878 47.3561 48.0426 47.219 48.1798Z" fill="#060313"/>
<path d="M37.0947 47.1643C35.9972 46.3411 35.1466 44.7223 35.9697 43.8992C36.7928 43.0761 38.8781 43.4602 40.003 44.2559C43.6796 47.4661 46.6703 48.7556 47.6855 47.7405C45.271 50.1549 41.1005 50.0178 37.0947 47.1643Z" fill="#060313"/>
<path d="M31.465 49.3597C31.0535 49.0854 31.0535 48.7836 31.2181 48.6189C31.6022 48.2348 33.5228 48.811 34.7301 49.5244C38.8183 52.0212 43.6472 51.3078 47.2141 48.1799C47.1592 48.2348 47.1044 48.2897 47.0495 48.3446C46.6928 48.6464 46.3361 48.9207 45.9794 49.1951C41.6169 52.2407 35.855 52.2955 31.465 49.3597Z" fill="#060313"/>
<path d="M49.3302 31.4979C49.0558 31.0863 48.754 31.0863 48.5894 31.2509C48.2053 31.635 48.7815 33.5557 49.4948 34.7629C51.9916 38.8511 51.2783 43.6801 48.1504 47.2469C48.2053 47.1921 48.2601 47.1372 48.315 47.0823C48.6168 46.7256 48.8912 46.369 49.1656 46.0123C52.1837 41.6771 52.2386 35.8878 49.3302 31.4979Z" fill="#060313"/>
<path d="M48.1211 47.2748C51.2764 43.708 51.9623 38.879 49.4655 34.7908C48.7247 33.611 47.3529 32.5958 46.6944 33.2543C46.0359 33.9128 46.3377 35.998 47.0785 37.1779C49.9594 41.1837 50.0692 45.3542 47.6547 47.7687C47.8467 47.5767 47.9839 47.412 48.1211 47.2748Z" fill="#060313"/>
<path d="M47.1089 37.1499C46.2858 36.0524 44.6944 35.2293 43.8713 36.0524C43.0482 36.8755 43.3774 38.9333 44.2006 40.0308C47.4108 43.7075 48.7003 46.6981 47.6851 47.7133C50.0996 45.3263 49.9624 41.1558 47.1089 37.1499Z" fill="#060313"/>
<path d="M47.6878 47.7406C46.6727 48.7558 43.682 47.4388 40.0054 44.256C39.0451 43.2957 38.7432 41.1556 39.9231 39.9758C41.1029 38.796 43.2155 39.0978 44.1759 40.0581C47.386 43.7347 48.703 46.7254 47.6878 47.7406Z" fill="#060313"/>
<path d="M30.0996 40.141C30.9227 41.2385 32.5415 42.0891 33.3647 41.266C34.1878 40.4428 33.8037 38.3576 33.008 37.2327C29.7978 33.556 28.5082 30.5654 29.5234 29.5502C27.1089 31.9647 27.2187 36.1352 30.0996 40.141Z" fill="#060313"/>
<path d="M29.0588 30.044C25.9035 33.6109 25.2176 38.4399 27.7144 42.5281C28.4552 43.7079 29.882 44.778 30.5405 44.1195C31.199 43.461 30.8423 41.3208 30.1015 40.141C27.2205 36.1352 27.1108 31.9647 29.5253 29.5502C29.3607 29.7148 29.2235 29.8794 29.0588 30.044Z" fill="#060313"/>
<path d="M27.8734 45.7928C28.1477 46.2044 28.4496 46.2044 28.6142 46.0397C28.9983 45.6556 28.4221 43.735 27.7087 42.5277C25.2119 38.4396 25.9253 33.6106 29.0532 30.0437C28.9983 30.0986 28.9434 30.1535 28.8886 30.2083C28.5867 30.565 28.3124 30.9217 28.038 31.2784C24.9924 35.6135 24.9376 41.4028 27.8734 45.7928Z" fill="#060313"/>
<path d="M45.7344 27.9038C46.146 28.1782 46.146 28.48 45.9814 28.6446C45.5973 29.0288 43.6766 28.4526 42.4694 27.7392C38.3812 25.2424 33.5522 25.9558 29.9854 29.0836C30.0402 29.0288 30.0951 28.9739 30.15 28.919C30.5067 28.6172 30.8633 28.3428 31.22 28.0684C35.5552 25.0503 41.3444 24.9955 45.7344 27.9038Z" fill="#060313"/>
<path d="M29.9909 29.1108C33.5578 25.9555 38.3868 25.2696 42.475 27.7664C43.6548 28.5072 44.67 29.8791 44.0115 30.5376C43.353 31.1961 41.2677 30.8943 40.0879 30.1535C36.0821 27.2725 31.9116 27.1628 29.4971 29.5773C29.6617 29.4127 29.8263 29.2755 29.9909 29.1108Z" fill="#060313"/>
<path d="M40.082 30.1257C41.1795 30.9488 42.0026 32.5402 41.1795 33.3633C40.3563 34.1864 38.2985 33.8572 37.201 33.034C33.5244 29.8239 30.5337 28.5343 29.5186 29.5495C31.9056 27.135 36.0761 27.2722 40.082 30.1257Z" fill="#060313"/>
<path d="M29.52 29.55C28.5048 30.5652 29.8218 33.5558 33.0046 37.2324C33.9649 38.1928 36.105 38.4946 37.2848 37.3148C38.4646 36.135 38.1628 34.0223 37.2025 33.062C33.4984 29.8518 30.5077 28.5348 29.52 29.55Z" fill="#060313"/>
<path d="M31.1959 48.6746C30.702 48.3179 30.2356 47.9063 29.7966 47.4673C29.3576 47.0283 28.946 46.5619 28.5894 46.068C28.4247 46.2052 28.1504 46.2052 27.876 45.7936C24.9402 41.4037 25.0225 35.6144 28.0406 31.2792C28.315 30.9225 28.5894 30.5659 28.8912 30.2092C28.946 30.1543 29.0009 30.0994 29.0558 30.0446C29.193 29.8799 29.3576 29.7153 29.4948 29.5781C29.6594 29.4135 29.7966 29.2763 29.9612 29.1391C32.0739 27.2734 34.653 26.2582 37.2596 26.2856H37.287C34.6805 26.2582 32.0739 27.2459 29.9612 29.1391C30.0161 29.0842 30.071 29.0294 30.1258 28.9745C30.4825 28.6727 30.8392 28.3983 31.1959 28.1239C35.531 25.0784 41.3203 25.0235 45.7103 27.9593C46.0944 28.2337 46.0944 28.5081 45.9847 28.6727C46.4786 29.0294 46.945 29.4409 47.384 29.8799C47.823 30.3189 48.2346 30.7854 48.5912 31.2792C48.7559 31.142 49.0302 31.142 49.3046 31.5536C52.2404 35.9436 52.1581 41.7329 49.14 46.068C48.8656 46.4247 48.5912 46.7814 48.2894 47.1381C48.2346 47.193 48.1797 47.2478 48.1248 47.3027C50.018 45.1626 51.0057 42.5835 50.9783 39.9769V40.0043C51.0057 42.6109 49.9906 45.19 48.1248 47.3027C47.9876 47.4673 47.8504 47.632 47.6858 47.7691C47.5212 47.9338 47.384 48.071 47.2194 48.2081C47.1645 48.263 47.1096 48.3179 47.0548 48.3728C46.6981 48.6746 46.3414 48.949 45.9847 49.2233C41.6496 52.2689 35.8603 52.3238 31.4703 49.388C31.0587 49.1136 31.0587 48.8118 31.1959 48.6746Z" fill="#060313"/>
<path d="M30.099 40.1405C27.7394 36.848 27.2455 33.4732 28.4528 31.0312C27.5473 33.4457 28.1784 36.6285 30.4283 39.7289C31.1965 40.7441 32.6507 41.5672 33.5287 41.0459C33.4738 41.1282 33.419 41.2105 33.3641 41.2654C32.541 42.0885 30.8947 41.2654 30.099 40.1405Z" fill="#060313"/>
<path d="M30.0412 29.0555C33.7453 25.7905 38.684 24.9674 42.7996 27.4093C43.8148 27.9855 45.3513 28.4519 46.0647 28.3696C46.0647 28.4794 46.0372 28.5891 45.9824 28.644C45.5982 29.0281 43.6776 28.4519 42.4704 27.7385C38.3822 25.2417 33.5532 25.9551 29.9863 29.083C30.0138 29.083 30.0138 29.083 30.0412 29.0555Z" fill="#060313"/>
<path d="M40.6378 29.851C41.5706 30.4272 43.0797 30.7564 43.9851 30.5369C43.3266 31.168 41.2688 30.8662 40.089 30.1528C36.4947 27.5737 32.7907 27.217 30.3213 28.8907C32.7907 26.8329 36.7691 27.0798 40.6378 29.851Z" fill="#060313"/>
<path d="M37.6201 32.7043C38.6078 33.3628 40.3364 33.6646 41.3516 33.1982C41.3241 33.253 41.2693 33.3079 41.2144 33.3628C40.3913 34.1859 38.3335 33.8567 37.236 33.0335C33.916 30.1252 31.1448 28.8082 29.9102 29.3295C31.0625 28.6161 34.0258 29.8234 37.6201 32.7043Z" fill="#060313"/>
<path d="M29.1912 30.2905C29.5754 31.7996 30.9747 34.0769 33.252 36.6835C34.2123 37.6438 36.2427 38.0553 37.4499 37.095C37.395 37.1773 37.3402 37.2322 37.2579 37.3145C36.078 38.4943 33.9379 38.1925 32.9776 37.2322C30.3711 34.2415 29.0266 31.6898 29.1912 30.2905Z" fill="#060313"/>
<path d="M27.7129 42.5273C25.3807 38.6586 25.8745 34.1314 28.5634 30.6469C26.1764 34.104 25.8471 38.4665 28.1519 42.2803C28.728 43.2132 29.7158 44.0912 30.4566 44.1461C29.7707 44.6948 28.3988 43.6796 27.7129 42.5273Z" fill="#060313"/>
<path d="M37.1005 47.165C40.393 49.5247 43.7678 50.0185 46.2097 48.8113C43.7953 49.7167 40.6125 49.0856 37.5121 46.8358C36.4969 46.0675 35.6738 44.6133 36.1951 43.7354C36.1128 43.7902 36.0305 43.8451 35.9756 43.9C35.1525 44.7231 36.003 46.3419 37.1005 47.165Z" fill="#060313"/>
<path d="M48.1837 47.1928C51.4487 43.4887 52.2719 38.55 49.8299 34.4344C49.2537 33.4192 48.7873 31.8827 48.8696 31.1693C48.7599 31.1693 48.6501 31.1967 48.5953 31.2516C48.2111 31.6357 48.7873 33.5564 49.5007 34.7636C51.9975 38.8518 51.2841 43.6808 48.1562 47.2477C48.1562 47.2477 48.1837 47.2202 48.1837 47.1928Z" fill="#060313"/>
<path d="M47.4156 36.6015C46.8394 35.6686 46.5101 34.1596 46.7296 33.2542C46.0986 33.9126 46.4004 35.9705 47.1138 37.1503C49.6929 40.7446 50.0496 44.4486 48.3759 46.918C50.4063 44.4486 50.1593 40.4702 47.4156 36.6015Z" fill="#060313"/>
<path d="M44.5367 39.6475C43.8782 38.6598 43.5763 36.9312 44.0428 35.916C43.9879 35.9435 43.933 35.9983 43.8782 36.0532C43.055 36.8763 43.3843 38.9341 44.2074 40.0316C47.1158 43.3516 48.4328 46.1227 47.9115 47.3574C48.6248 46.1776 47.4176 43.2418 44.5367 39.6475Z" fill="#060313"/>
<path d="M46.9461 48.0702C45.437 47.6861 43.1597 46.2868 40.5531 44.0095C39.5928 43.0491 39.1813 41.0188 40.1416 39.8115C40.0593 39.8664 40.0044 39.9213 39.9221 40.0036C38.7423 41.1834 39.0441 43.3235 40.0044 44.2838C43.0225 46.8629 45.5468 48.2074 46.9461 48.0702Z" fill="#060313"/>
<path d="M34.711 49.552C38.5797 51.8842 43.1069 51.3903 46.5914 48.7014C43.1343 51.0885 38.7718 51.4177 34.9579 49.113C34.0251 48.5368 33.1471 47.549 33.0922 46.8082C32.5435 47.4667 33.5861 48.8386 34.711 49.552Z" fill="#060313"/>
<path d="M29.7454 40.4973C27.2212 36.8207 26.9194 33.0344 28.6479 30.565C28.7851 30.3729 28.9223 30.2083 29.0869 30.0162C29.2241 29.8516 29.3887 29.687 29.5259 29.5498C27.1114 31.9643 27.2212 36.1348 30.1021 40.1407C30.8429 41.3205 31.1996 43.4606 30.5411 44.1191C30.4862 44.2014 30.4039 44.2288 30.3216 44.2563C30.7057 43.4331 30.3765 41.5674 29.7454 40.4973Z" fill="#060313"/>
<path d="M32.6771 37.5891C29.7687 34.0771 28.534 31.1688 29.2748 29.9341C28.8084 31.1962 30.1254 33.9399 33.0063 37.2324C33.8295 38.3299 34.1861 40.4152 33.363 41.2657C33.2807 41.3481 33.1984 41.4029 33.0886 41.4578C33.6923 40.4701 33.3905 38.6043 32.6771 37.5891Z" fill="#060313"/>
<path d="M27.3572 42.8845C25.8481 40.3603 25.5463 37.5617 26.2871 34.9277C26.6712 33.6656 27.2474 32.4583 28.0157 31.3334C28.0431 31.2785 28.0705 31.2511 28.098 31.1962C28.3449 30.8669 28.6193 30.5377 28.8937 30.2084C28.9485 30.1536 29.0034 30.0987 29.0583 30.0438C25.903 33.6107 25.217 38.4397 27.7138 42.5279C28.4272 43.7351 28.976 45.6557 28.6193 46.0399C28.5644 46.0947 28.4547 46.1496 28.3449 46.1222C28.3998 45.4088 27.9333 43.8997 27.3572 42.8845Z" fill="#060313"/>
<path d="M42.2555 28.0959C38.4966 25.8186 34.0791 26.2027 30.5946 28.6995C30.2104 28.9465 29.8263 29.2208 29.4971 29.5501C29.6617 29.3855 29.8263 29.2483 29.9635 29.1111C33.5304 25.9558 38.3594 25.2699 42.4475 27.7667C43.6274 28.5075 44.6425 29.8793 43.984 30.5378C43.984 30.5378 43.9566 30.5378 43.9566 30.5653C44.1487 29.8245 43.2707 28.727 42.2555 28.0959Z" fill="#060313"/>
<path d="M39.6225 30.4554C36.9611 28.5348 34.2722 27.7665 32.0498 28.0958C34.3546 27.4647 37.2629 28.0958 40.1164 30.1261C41.2139 30.9492 42.037 32.5406 41.2139 33.3637C41.1316 33.4461 41.0767 33.5009 40.967 33.5558C41.4608 32.6778 40.6652 31.2511 39.6225 30.4554Z" fill="#060313"/>
<path d="M36.6318 33.282C34.0801 31.0321 31.8577 29.6328 30.3486 29.2212C31.7479 29.1389 34.2448 30.4833 37.208 33.035C38.1683 33.9953 38.4701 36.108 37.2903 37.2878C37.208 37.3701 37.1257 37.425 37.0708 37.4799C38.0037 36.3001 37.6196 34.2697 36.6318 33.282Z" fill="#060313"/>
<path d="M36.7365 47.5211C40.4131 50.0453 44.1995 50.3471 46.6688 48.6186C46.8609 48.4814 47.0255 48.3442 47.2176 48.1796C47.3822 48.0424 47.5468 47.8778 47.684 47.7406C45.2695 50.1551 41.099 50.0453 37.0932 47.1644C35.9133 46.4236 33.7732 46.0669 33.1147 46.7254C33.0324 46.7803 33.005 46.8626 32.9775 46.9449C33.8007 46.5333 35.6664 46.8626 36.7365 47.5211Z" fill="#060313"/>
<path d="M39.649 44.5853C43.1609 47.4937 46.0693 48.7284 47.304 47.9876C46.0419 48.454 43.2981 47.137 40.0056 44.2561C38.9081 43.4329 36.8229 43.0763 35.9723 43.8994C35.89 43.9817 35.8351 44.064 35.7803 44.1738C36.768 43.5701 38.6338 43.8719 39.649 44.5853Z" fill="#060313"/>
<path d="M34.3533 49.9084C36.8776 51.4175 39.6762 51.7193 42.3102 50.9785C43.5723 50.5943 44.7795 50.0181 45.9045 49.2499C45.9594 49.2225 45.9868 49.195 46.0417 49.1676C46.3709 48.9206 46.7002 48.6463 47.0294 48.3719C47.0843 48.317 47.1392 48.2622 47.194 48.2073C43.6272 51.3626 38.7982 52.0485 34.71 49.5517C33.5028 48.8383 31.5821 48.2896 31.198 48.6463C31.1431 48.7012 31.0883 48.8109 31.1157 48.9207C31.8291 48.8383 33.3381 49.3048 34.3533 49.9084Z" fill="#060313"/>
<path d="M49.1422 34.9821C51.4195 38.7411 51.0354 43.1585 48.5386 46.643C48.2917 47.0272 48.0173 47.4113 47.688 47.7405C47.8527 47.5759 47.9898 47.4113 48.127 47.2741C51.2823 43.7072 51.9683 38.8782 49.4715 34.7901C48.7307 33.6103 47.3588 32.5951 46.7003 33.2536C46.7003 33.2536 46.7003 33.281 46.6729 33.281C47.4411 33.0889 48.5112 33.9669 49.1422 34.9821Z" fill="#060313"/>
<path d="M46.7811 37.6162C48.7017 40.2776 49.47 42.9665 49.1407 45.1889C49.7718 42.8842 49.1407 39.9758 47.1103 37.1223C46.2872 36.0248 44.6959 35.2017 43.8727 36.0248C43.7904 36.1071 43.7355 36.162 43.6807 36.2718C44.5587 35.7779 46.0128 36.5736 46.7811 37.6162Z" fill="#060313"/>
<path d="M43.9596 40.6068C46.2095 43.1585 47.6088 45.3809 48.0204 46.89C48.1027 45.4907 46.7583 42.9939 44.2066 40.0306C43.2463 39.0703 41.1336 38.7685 39.9538 39.9483C39.8715 40.0306 39.8166 40.1129 39.7617 40.1678C40.9415 39.2349 42.9719 39.6465 43.9596 40.6068Z" fill="#060313"/>
<path d="M50.8415 45.9299L45.8753 50.8961L44.915 49.9358L49.8812 44.9696L50.8415 45.9299Z" fill="#060313"/>
<path d="M31.1697 26.9982L26.9443 31.2235L27.109 27.1902L27.1364 27.1628L31.1697 26.9982Z" fill="#060313"/>
<path d="M30.1853 27.986L27.9354 30.2358L27.1123 27.1903L27.1397 27.1628L30.1853 27.986Z" fill="#060313"/>
<path d="M31.1697 26.9982C31.4166 27.2451 31.8008 27.6292 31.5813 27.8762L27.8223 31.6351C27.5754 31.882 27.1638 31.4705 26.9443 31.251L31.1697 26.9982Z" fill="#060313"/>
<path d="M131.83 126.13L126.068 131.892L107.191 111.89L111.828 107.253L131.83 126.13Z" fill="#060313"/>
<path d="M132.712 126.815C132.52 126.623 132.438 126.431 132.52 126.376L126.347 132.55C126.429 132.467 126.621 132.577 126.786 132.742C126.95 132.906 127.005 133.126 126.923 133.181L133.151 126.953C133.069 127.035 132.877 127.007 132.712 126.815Z" fill="#060313"/>
<path opacity="0.1" d="M132.685 126.788L126.758 132.714C126.594 132.55 126.402 132.495 126.347 132.55L132.52 126.376C132.438 126.431 132.52 126.623 132.685 126.788Z" fill="#060313"/>
<path d="M112.36 107.582L107.559 112.383C107.339 112.438 107.12 112.383 106.928 112.191C106.653 111.917 106.571 111.615 106.681 111.313L111.263 106.731C111.592 106.594 111.867 106.676 112.141 106.978C112.36 107.143 112.415 107.362 112.36 107.582Z" fill="#060313"/>
<path d="M112.36 107.582L107.559 112.383C107.339 112.438 107.12 112.383 106.928 112.191C106.653 111.917 106.571 111.615 106.681 111.313L111.263 106.731C111.592 106.594 111.867 106.676 112.141 106.978C112.36 107.143 112.415 107.362 112.36 107.582Z" fill="#060313"/>
<path d="M131.645 125.279L125.252 131.672C125.197 131.891 125.252 132.111 125.444 132.303C125.718 132.577 126.02 132.659 126.322 132.55L132.495 126.376C132.632 126.047 132.55 125.773 132.248 125.498C132.084 125.279 131.864 125.224 131.645 125.279Z" fill="#060313"/>
<path d="M131.645 125.279L125.252 131.672C125.197 131.891 125.252 132.111 125.444 132.303C125.718 132.577 126.02 132.659 126.322 132.55L132.495 126.376C132.632 126.047 132.55 125.773 132.248 125.498C132.084 125.279 131.864 125.224 131.645 125.279Z" fill="#060313"/>
<path d="M126.925 133.181C128.077 133.236 128.818 132.962 130.876 130.904C132.934 128.846 133.208 128.105 133.153 126.925L126.925 133.181Z" fill="#060313"/>
<path d="M126.925 133.181C128.077 133.236 128.818 132.962 130.876 130.904C132.934 128.846 133.208 128.105 133.153 126.925L126.925 133.181Z" fill="#060313"/>
<path d="M130.551 130.602C132.224 128.928 132.91 128.023 133.185 127.172C133.185 128.242 132.828 129.011 130.907 130.931C128.987 132.852 128.218 133.209 127.148 133.209C127.972 132.934 128.877 132.248 130.551 130.602Z" fill="#060313"/>
<path d="M130.551 130.602C132.224 128.928 132.91 128.023 133.185 127.172C133.185 128.242 132.828 129.011 130.907 130.931C128.987 132.852 128.218 133.209 127.148 133.209C127.972 132.934 128.877 132.248 130.551 130.602Z" fill="#060313"/>
<path d="M129.966 131.782C130.405 132.139 131.091 132.084 131.557 131.617C132.024 131.151 132.106 130.438 131.722 130.026L129.966 131.782Z" fill="#060313"/>
<path d="M129.966 131.782C130.405 132.139 131.091 132.084 131.557 131.617C132.024 131.151 132.106 130.438 131.722 130.026L129.966 131.782Z" fill="#060313"/>
<path d="M131.29 131.343C131.564 131.068 131.784 130.767 131.949 130.492C132.031 130.876 131.894 131.315 131.564 131.645C131.235 131.974 130.796 132.111 130.412 132.029C130.714 131.837 130.988 131.617 131.29 131.343Z" fill="#060313"/>
<path d="M131.29 131.343C131.564 131.068 131.784 130.767 131.949 130.492C132.031 130.876 131.894 131.315 131.564 131.645C131.235 131.974 130.796 132.111 130.412 132.029C130.714 131.837 130.988 131.617 131.29 131.343Z" fill="#060313"/>
<path d="M130.926 130.986C130.624 131.288 130.35 131.589 130.076 131.864C130.048 131.836 129.993 131.809 129.966 131.781L131.749 129.998C131.777 130.025 131.804 130.08 131.832 130.108C131.53 130.41 131.228 130.684 130.926 130.986Z" fill="#060313"/>
<path d="M130.926 130.986C130.624 131.288 130.35 131.589 130.076 131.864C130.048 131.836 129.993 131.809 129.966 131.781L131.749 129.998C131.777 130.025 131.804 130.08 131.832 130.108C131.53 130.41 131.228 130.684 130.926 130.986Z" fill="#060313"/>
<path d="M127.144 125.608C127.61 126.074 127.61 126.815 127.144 127.254C126.677 127.721 125.936 127.721 125.497 127.254L111.12 112.52C110.763 112.164 110.763 111.587 111.12 111.231C111.477 110.874 112.053 110.874 112.41 111.231L127.144 125.608Z" fill="#060313"/>
<path d="M111.202 111.341C111.504 111.039 111.998 111.039 112.3 111.341L127.034 125.718C127.445 126.13 127.445 126.761 127.034 127.172C126.622 127.584 125.991 127.584 125.58 127.172L111.23 112.438C110.901 112.137 110.901 111.643 111.202 111.341ZM111.12 111.259C110.763 111.615 110.763 112.191 111.12 112.548L125.497 127.282C125.964 127.749 126.705 127.749 127.144 127.282C127.61 126.816 127.61 126.075 127.144 125.636L112.41 111.259C112.053 110.902 111.477 110.902 111.12 111.259Z" fill="#060313"/>
<path d="M124.757 127.995C125.196 128.462 125.361 129.038 125.114 129.312C124.867 129.559 124.291 129.394 123.852 128.928L109.721 113.947C109.365 113.59 109.255 113.124 109.447 112.932C109.639 112.74 110.106 112.877 110.435 113.234L124.757 127.995Z" fill="#060313"/>
<path d="M125.001 129.202C125.165 129.038 125.083 128.516 124.644 128.105L110.349 113.316C110.157 113.097 109.91 112.959 109.718 112.959C109.636 112.959 109.608 112.987 109.553 113.014C109.526 113.042 109.526 113.097 109.498 113.124L109.389 113.014C109.416 112.987 109.416 112.959 109.444 112.932C109.636 112.74 110.102 112.877 110.431 113.234L124.726 128.023C125.165 128.489 125.33 129.065 125.083 129.34L125.001 129.202Z" fill="#060313"/>
<path d="M127.907 124.84C128.373 125.279 128.95 125.444 129.224 125.197C129.498 124.95 129.306 124.373 128.84 123.934L113.859 109.832C113.502 109.475 113.036 109.365 112.844 109.557C112.652 109.749 112.789 110.216 113.146 110.545L127.907 124.84Z" fill="#060313"/>
<path d="M112.822 109.53C112.849 109.502 112.849 109.502 112.876 109.502L112.986 109.612C112.959 109.612 112.931 109.612 112.931 109.64C112.904 109.667 112.876 109.722 112.876 109.804C112.876 109.996 113.014 110.243 113.233 110.435L128.022 124.73C128.461 125.142 128.955 125.251 129.147 125.087C129.202 125.032 129.202 124.977 129.229 124.895L129.339 125.004C129.311 125.059 129.284 125.114 129.257 125.169C129.01 125.416 128.406 125.279 127.94 124.812L113.151 110.518C112.767 110.188 112.629 109.749 112.822 109.53Z" fill="#060313"/>
<path d="M108.545 113.289L113.237 108.57L112.963 108.213L108.161 113.015L108.545 113.289Z" fill="#060313"/>
<path d="M106.044 110.683L110.626 106.073L110.269 105.799L105.77 110.326L106.044 110.683Z" fill="#060313"/>
<path d="M112.959 108.213L108.157 113.015L107.526 112.383L112.355 107.582L112.959 108.213Z" fill="#060313"/>
<path d="M131.638 125.279L125.245 131.671L125.026 131.452C124.806 131.232 124.806 130.848 125.026 130.629L130.596 125.059C130.815 124.84 131.199 124.84 131.419 125.059L131.638 125.279Z" fill="#060313"/>
<path d="M131.638 125.279L125.245 131.671L125.026 131.452C124.806 131.232 124.806 130.848 125.026 130.629L130.596 125.059C130.815 124.84 131.199 124.84 131.419 125.059L131.638 125.279Z" fill="#060313"/>
<path d="M111.255 106.703L106.673 111.286L106.042 110.654L110.624 106.072L111.255 106.703Z" fill="#060313"/>
<path d="M38.6022 25.7633C41.0991 25.7633 43.5684 26.4767 45.7085 27.9034C46.0927 28.1778 46.0927 28.4522 45.9829 28.6168C46.4768 28.9735 46.9432 29.385 47.3822 29.824C47.8212 30.263 48.2328 30.7295 48.5895 31.2233C48.6444 31.1685 48.7267 31.141 48.809 31.141C48.9462 31.141 49.1382 31.2233 49.3028 31.4703C52.0192 35.5585 52.1563 40.8539 49.7144 45.0518L49.8516 44.9146L50.8119 45.8749L50.5924 46.0944L50.8119 45.8749L50.8942 46.3962L110.241 105.743L110.598 106.018L111.229 106.649L111.174 106.704L111.229 106.649C111.339 106.594 111.421 106.594 111.531 106.594C111.75 106.594 111.943 106.704 112.135 106.896C112.354 107.115 112.382 107.307 112.327 107.527L112.958 108.158L113.205 108.487L130.655 124.95C130.765 124.867 130.902 124.84 131.012 124.84C131.149 124.84 131.313 124.895 131.423 125.005L131.643 125.224C131.698 125.197 131.752 125.197 131.807 125.197C131.972 125.197 132.137 125.251 132.274 125.416C132.548 125.69 132.63 125.992 132.521 126.294C132.493 126.322 132.493 126.322 132.493 126.376C132.493 126.404 132.493 126.431 132.521 126.459V126.486C132.548 126.568 132.603 126.651 132.685 126.733L132.713 126.761C132.822 126.87 132.96 126.925 133.042 126.925C133.097 126.925 133.124 126.925 133.152 126.898C133.179 127.885 132.987 128.571 131.725 129.971C132.082 130.41 132.027 131.096 131.56 131.562C131.286 131.836 130.957 131.974 130.627 131.974C130.381 131.974 130.161 131.891 129.969 131.727C128.679 132.906 127.993 133.153 127.143 133.153C127.061 133.153 127.006 133.153 126.923 133.153C127.006 133.071 126.951 132.879 126.786 132.714L126.759 132.687C126.676 132.605 126.594 132.55 126.512 132.522H126.484C126.457 132.522 126.43 132.495 126.402 132.495C126.375 132.495 126.347 132.495 126.32 132.522C126.21 132.577 126.128 132.577 126.018 132.577C125.798 132.577 125.606 132.467 125.414 132.275C125.195 132.056 125.167 131.864 125.222 131.644L125.003 131.425C124.811 131.233 124.783 130.904 124.948 130.684L108.458 113.206L108.156 112.987L107.525 112.356C107.47 112.383 107.415 112.383 107.36 112.383C107.196 112.383 107.031 112.328 106.894 112.164C106.62 111.889 106.537 111.588 106.647 111.286L106.675 111.258L106.647 111.286L106.016 110.655L105.769 110.353L46.4219 50.9783L45.9006 50.896L44.9403 49.9357L45.1049 49.771C43.102 50.9234 40.8796 51.4996 38.6297 51.4996C36.1329 51.4996 33.6635 50.7862 31.4959 49.3595C31.1118 49.0851 31.1118 48.8107 31.2216 48.6461C30.7277 48.2894 30.2613 47.8779 29.8223 47.4389C29.3833 46.9999 28.9717 46.5334 28.615 46.0396C28.5601 46.0944 28.4778 46.1219 28.3955 46.1219C28.2583 46.1219 28.0663 46.0396 27.9016 45.7926C25.0481 41.5124 25.0481 35.9426 27.8468 31.6349C27.7919 31.6623 27.737 31.6898 27.6821 31.6898C27.4626 31.6898 27.1608 31.4154 26.9688 31.2233L27.1334 27.19L27.1608 27.1626L31.1941 26.998C31.4136 27.2175 31.7978 27.6016 31.6057 27.8485C33.7184 26.4767 36.1603 25.7633 38.6022 25.7633ZM37.2852 26.2572H37.3127C37.2852 26.2572 37.2304 26.2572 37.2029 26.2572C35.1726 26.2572 33.1971 26.8882 31.4136 28.0406C33.1971 26.8882 35.2 26.2572 37.2029 26.2572C37.2304 26.2572 37.2578 26.2572 37.2852 26.2572ZM49.5223 45.3262C50.5101 43.6251 51.004 41.7868 51.004 39.921V39.9484C51.004 41.8142 50.4827 43.6525 49.5223 45.3262ZM38.6022 25.6261C36.1603 25.6261 33.8007 26.2846 31.7429 27.5742C31.6606 27.3272 31.4136 27.0803 31.249 26.9157C31.2216 26.8882 31.1941 26.8608 31.1393 26.8608L27.106 27.0254C27.0785 27.0254 27.0236 27.0528 26.9962 27.0803C26.9688 27.1077 26.9688 27.1352 26.9688 27.1626L26.8041 31.1959C26.8041 31.2233 26.8041 31.2782 26.8316 31.3057C27.0511 31.5251 27.2706 31.7172 27.5175 31.7995C24.8286 36.1346 24.911 41.5947 27.737 45.8475C27.9565 46.1767 28.2034 46.2591 28.3406 46.2591C28.3955 46.2591 28.4504 46.2591 28.5053 46.2316C28.8619 46.6981 29.2461 47.1371 29.6576 47.5486C30.0692 47.9602 30.5082 48.3443 30.9746 48.701C30.9472 48.7833 30.9472 48.8656 30.9472 48.9479C30.9746 49.0851 31.0569 49.2772 31.3588 49.4967C33.4989 50.9234 35.9957 51.6642 38.5474 51.6642C40.7424 51.6642 42.8825 51.1155 44.8031 50.0729L45.736 51.0057C45.7634 51.0332 45.7909 51.0332 45.8183 51.0332H45.8457L46.2847 51.088L105.632 110.435L105.851 110.737L105.879 110.764L106.455 111.341C106.345 111.67 106.455 111.999 106.757 112.301C106.921 112.466 107.114 112.548 107.333 112.548C107.36 112.548 107.415 112.548 107.443 112.548L108.046 113.124L108.321 113.344L124.756 130.739C124.619 131.013 124.674 131.343 124.893 131.562L125.058 131.727C125.003 131.974 125.113 132.221 125.305 132.413C125.524 132.632 125.771 132.742 126.018 132.742C126.128 132.742 126.237 132.714 126.375 132.66C126.375 132.66 126.375 132.66 126.402 132.66C126.402 132.66 126.43 132.66 126.457 132.66C126.512 132.687 126.594 132.742 126.649 132.797L126.676 132.824C126.786 132.934 126.814 133.044 126.814 133.071C126.786 133.099 126.759 133.181 126.786 133.208C126.814 133.263 126.869 133.291 126.923 133.291C127.006 133.291 127.061 133.291 127.143 133.291C127.993 133.291 128.679 133.071 129.969 131.919C130.161 132.056 130.381 132.111 130.627 132.111C131.012 132.111 131.368 131.946 131.67 131.672C132.164 131.178 132.246 130.465 131.917 129.971C133.124 128.599 133.344 127.885 133.289 126.898C133.289 126.843 133.261 126.788 133.207 126.761C133.179 126.761 133.179 126.761 133.152 126.761C133.124 126.761 133.069 126.761 133.042 126.788C132.987 126.788 132.905 126.761 132.795 126.651L132.768 126.623C132.713 126.568 132.658 126.486 132.63 126.431L132.493 126.459L132.63 126.404V126.376C132.63 126.376 132.63 126.376 132.63 126.349C132.795 125.992 132.685 125.636 132.356 125.306C132.191 125.142 131.999 125.059 131.78 125.059C131.752 125.059 131.698 125.059 131.67 125.059L131.505 124.895C131.368 124.758 131.204 124.675 131.012 124.675C130.902 124.675 130.765 124.703 130.682 124.758L113.342 108.46L113.095 108.103L112.519 107.527C112.574 107.28 112.464 107.033 112.272 106.841C112.052 106.621 111.805 106.512 111.558 106.512C111.476 106.512 111.394 106.512 111.311 106.539L110.735 105.963L110.708 105.935L110.379 105.689L51.0588 46.3962L50.9765 45.9298C50.9765 45.9024 50.9765 45.8475 50.9491 45.8201L50.0162 44.8872C52.321 40.6618 52.1015 35.4213 49.44 31.4154C49.2205 31.0861 48.9736 31.0038 48.8364 31.0038C48.7815 31.0038 48.7267 31.0038 48.6444 31.0313C48.2877 30.5648 47.9035 30.1258 47.492 29.7143C47.0804 29.3027 46.6414 28.9186 46.175 28.5619C46.2024 28.4796 46.2299 28.3973 46.2024 28.315C46.175 28.1778 46.0927 27.9583 45.7909 27.7662C43.6782 26.3669 41.1814 25.6261 38.6022 25.6261V25.7633V25.6261Z" fill="#060313"/>
<path d="M46.6504 107.774L51.1501 112.301L113.378 50.0455L108.879 45.5458L46.6504 107.774Z" fill="#060313"/>
<path d="M112.472 50.9788L107.944 46.4516L108.027 45.9303L112.993 50.8965L112.472 50.9788Z" fill="#060313"/>
<path d="M120.29 51.1156C127.169 51.1156 132.746 45.5386 132.746 38.659C132.746 31.7794 127.169 26.2024 120.29 26.2024C113.41 26.2024 107.833 31.7794 107.833 38.659C107.833 45.5386 113.41 51.1156 120.29 51.1156Z" fill="#060313"/>
<g opacity="0.1">
<path d="M112.057 47.7965C115.624 50.9518 120.453 51.6377 124.541 49.1409C125.721 48.4001 126.791 46.9734 126.133 46.3149C125.474 45.6564 123.334 46.0131 122.154 46.7539C118.148 49.6348 113.978 49.7446 111.563 47.3301C111.756 47.4947 111.893 47.6319 112.057 47.7965Z" fill="#060313"/>
<path d="M122.182 46.7531C123.279 45.93 124.13 44.3112 123.307 43.4881C122.483 42.665 120.398 43.0491 119.273 43.8448C115.597 47.0549 112.606 48.3445 111.591 47.3293C114.005 49.7438 118.176 49.6341 122.182 46.7531Z" fill="#060313"/>
<path d="M127.423 49.3597C127.835 49.0853 128.219 48.372 128.082 48.2348C127.698 47.8507 125.777 48.4268 124.57 49.1402C120.482 51.637 115.653 50.9236 112.086 47.7958C112.141 47.8507 112.196 47.9055 112.251 47.9604C112.607 48.2622 112.964 48.5366 113.321 48.811C117.656 51.8291 123.033 52.2955 127.423 49.3597Z" fill="#060313"/>
<path d="M109.562 31.4977C109.837 31.0862 110.55 30.702 110.687 30.8392C111.071 31.2234 110.495 33.144 109.782 34.3512C107.285 38.4394 107.998 43.2684 111.126 46.8353C111.071 46.7804 111.017 46.7255 110.962 46.6706C110.66 46.314 110.386 45.9573 110.111 45.6006C107.093 41.2929 106.627 35.8877 109.562 31.4977Z" fill="#060313"/>
<path d="M111.153 46.8636C107.997 43.2967 107.311 38.4677 109.808 34.3795C110.549 33.1997 111.921 32.1845 112.579 32.843C113.238 33.5015 112.936 35.5868 112.195 36.7666C109.314 40.7725 109.205 44.943 111.619 47.3575C111.427 47.1928 111.29 47.0282 111.153 46.8636Z" fill="#060313"/>
<path d="M112.172 36.7386C112.995 35.6412 114.586 34.818 115.409 35.6412C116.233 36.4643 115.903 38.5221 115.08 39.6196C111.87 43.2962 110.58 46.2869 111.596 47.3021C109.181 44.915 109.291 40.7445 112.172 36.7386Z" fill="#060313"/>
<path d="M111.596 47.3295C112.611 48.3446 115.602 47.0276 119.279 43.8449C120.239 42.8846 120.541 40.7445 119.361 39.5647C118.181 38.3848 116.068 38.6867 115.108 39.647C111.87 43.3236 110.581 46.3143 111.596 47.3295Z" fill="#060313"/>
<path d="M129.429 30.428C132.584 33.9948 133.27 38.8238 130.774 42.912C130.033 44.0918 128.606 45.1619 127.948 44.5034C127.289 43.8449 127.646 41.7047 128.387 40.5249C131.267 36.5191 131.377 32.3486 128.963 29.9341C129.127 30.0987 129.265 30.2633 129.429 30.428Z" fill="#060313"/>
<path d="M128.384 40.5529C127.561 41.6504 125.942 42.5009 125.119 41.6778C124.295 40.8547 124.68 38.7695 125.475 37.6445C128.685 33.9679 129.975 30.9772 128.96 29.962C131.374 32.3765 131.265 36.547 128.384 40.5529Z" fill="#060313"/>
<path d="M131.013 45.7926C130.739 46.2042 130.025 46.5883 129.888 46.4511C129.504 46.067 130.08 44.1464 130.794 42.9391C133.29 38.8509 132.577 34.0219 129.449 30.4551C129.504 30.51 129.559 30.5648 129.614 30.6197C129.916 30.9764 130.19 31.3331 130.464 31.6898C133.483 35.9974 133.922 41.4026 131.013 45.7926Z" fill="#060313"/>
<path d="M113.157 27.9039C112.745 28.1783 112.361 28.8917 112.498 29.0288C112.882 29.413 114.803 28.8368 116.01 28.1234C120.098 25.6266 124.927 26.34 128.494 29.4678C128.439 29.413 128.384 29.3581 128.329 29.3032C127.973 29.0014 127.616 28.727 127.259 28.4527C122.924 25.462 117.519 24.9955 113.157 27.9039Z" fill="#060313"/>
<path d="M128.491 29.5223C124.924 26.367 120.095 25.6811 116.007 28.1779C114.827 28.9187 113.812 30.2906 114.47 30.9491C115.129 31.6076 117.214 31.3058 118.394 30.565C122.4 27.684 126.57 27.5743 128.985 29.9888C128.82 29.7967 128.656 29.6595 128.491 29.5223Z" fill="#060313"/>
<path d="M118.4 30.5373C117.302 31.3605 116.479 32.9518 117.302 33.775C118.125 34.5981 120.183 34.2688 121.281 33.4457C124.957 30.2355 127.948 28.946 128.963 29.9612C126.576 27.5467 122.406 27.6564 118.4 30.5373Z" fill="#060313"/>
<path d="M128.958 29.9614C129.974 30.9765 128.657 33.9672 125.474 37.6438C124.513 38.6041 122.373 38.906 121.194 37.7262C120.014 36.5463 120.316 34.4337 121.276 33.4733C124.98 30.2357 127.971 28.9462 128.958 29.9614Z" fill="#060313"/>
</g>
<path d="M111.675 48.1798C115.241 51.3351 120.07 52.021 124.159 49.5242C125.338 48.7834 126.408 47.3567 125.75 46.6982C125.091 46.0397 122.951 46.3964 121.772 47.1372C117.766 50.0181 113.595 50.1279 111.181 47.7134C111.345 47.878 111.51 48.0426 111.675 48.1798Z" fill="#060313"/>
<path d="M121.772 47.1643C122.869 46.3411 123.72 44.7223 122.896 43.8992C122.073 43.0761 119.988 43.4602 118.863 44.2559C115.187 47.4661 112.196 48.7556 111.181 47.7405C113.595 50.1549 117.766 50.0178 121.772 47.1643Z" fill="#060313"/>
<path d="M127.417 49.3597C127.829 49.0854 127.829 48.7836 127.664 48.6189C127.28 48.2348 125.359 48.811 124.152 49.5244C120.064 52.0212 115.235 51.3078 111.668 48.1799C111.723 48.2348 111.778 48.2897 111.833 48.3446C112.189 48.6464 112.546 48.9207 112.903 49.1951C117.238 52.2407 123.027 52.2955 127.417 49.3597Z" fill="#060313"/>
<path d="M109.562 31.4979C109.836 31.0863 110.138 31.0863 110.303 31.2509C110.687 31.635 110.111 33.5557 109.397 34.7629C106.9 38.8511 107.614 43.6801 110.742 47.2469C110.687 47.1921 110.632 47.1372 110.577 47.0823C110.275 46.7256 110.001 46.369 109.726 46.0123C106.681 41.6771 106.626 35.8878 109.562 31.4979Z" fill="#060313"/>
<path d="M110.741 47.2739C107.586 43.707 106.9 38.878 109.397 34.7898C110.138 33.61 111.51 32.5948 112.168 33.2533C112.827 33.9118 112.525 35.9971 111.784 37.1769C108.903 41.1827 108.793 45.3532 111.208 47.7677C111.043 47.5757 110.906 47.411 110.741 47.2739Z" fill="#060313"/>
<path d="M111.781 37.1499C112.604 36.0524 114.196 35.2293 115.019 36.0524C115.842 36.8755 115.513 38.9333 114.69 40.0308C111.479 43.7075 110.19 46.6981 111.205 47.7133C108.791 45.3263 108.9 41.1558 111.781 37.1499Z" fill="#060313"/>
<path d="M111.177 47.7406C112.192 48.7558 115.182 47.4388 118.859 44.256C119.819 43.2957 120.121 41.1556 118.941 39.9758C117.762 38.796 115.649 39.0978 114.689 40.0581C111.478 43.7347 110.189 46.7254 111.177 47.7406Z" fill="#060313"/>
<path d="M128.794 40.1404C127.971 41.2379 126.352 42.0885 125.529 41.2654C124.706 40.4422 125.09 38.357 125.885 37.232C129.096 33.5554 130.385 30.5647 129.37 29.5496C131.784 31.9641 131.647 36.1345 128.794 40.1404Z" fill="#060313"/>
<path d="M129.813 30.044C132.968 33.6109 133.654 38.4399 131.157 42.5281C130.417 43.7079 128.99 44.778 128.331 44.1195C127.673 43.461 128.03 41.3208 128.77 40.141C131.651 36.1352 131.761 31.9647 129.347 29.5502C129.539 29.7148 129.676 29.8794 129.813 30.044Z" fill="#060313"/>
<path d="M131.02 45.7928C130.745 46.2044 130.443 46.2044 130.279 46.0397C129.895 45.6556 130.471 43.735 131.184 42.5277C133.681 38.4396 132.968 33.6106 129.84 30.0437C129.895 30.0986 129.95 30.1535 130.004 30.2083C130.306 30.565 130.581 30.9217 130.855 31.2784C133.873 35.6135 133.928 41.4028 131.02 45.7928Z" fill="#060313"/>
<path d="M113.154 27.9038C112.743 28.1782 112.743 28.48 112.908 28.6446C113.292 29.0288 115.212 28.4526 116.42 27.7392C120.508 25.2424 125.337 25.9558 128.904 29.0836C128.849 29.0288 128.794 28.9739 128.739 28.919C128.382 28.6172 128.026 28.3428 127.669 28.0684C123.306 25.0503 117.517 24.9955 113.154 27.9038Z" fill="#060313"/>
<path d="M128.909 29.1108C125.342 25.9555 120.513 25.2696 116.425 27.7664C115.245 28.5072 114.23 29.8791 114.888 30.5376C115.547 31.1961 117.632 30.8943 118.812 30.1535C122.818 27.2725 126.988 27.1628 129.403 29.5773C129.211 29.4127 129.046 29.2755 128.909 29.1108Z" fill="#060313"/>
<path d="M118.776 30.1257C117.678 30.9488 116.855 32.5402 117.678 33.3633C118.501 34.1864 120.559 33.8572 121.657 33.034C125.333 29.8239 128.324 28.5343 129.339 29.5495C126.952 27.135 122.782 27.2722 118.776 30.1257Z" fill="#060313"/>
<path d="M129.37 29.55C130.386 30.5652 129.069 33.5558 125.886 37.2324C124.926 38.1928 122.785 38.4946 121.606 37.3148C120.426 36.135 120.728 34.0223 121.688 33.062C125.365 29.8518 128.355 28.5348 129.37 29.55Z" fill="#060313"/>
<path d="M128.793 40.1405C131.153 36.848 131.646 33.4732 130.439 31.0312C131.345 33.4457 130.714 36.6285 128.464 39.7289C127.695 40.7441 126.241 41.5672 125.363 41.0459C125.418 41.1282 125.473 41.2105 125.528 41.2654C126.351 42.0885 127.97 41.2654 128.793 40.1405Z" fill="#060313"/>
<path d="M128.821 29.0556C125.117 25.7905 120.179 24.9674 116.063 27.4093C115.048 27.9855 113.511 28.4519 112.798 28.3696C112.798 28.4794 112.825 28.5891 112.88 28.644C113.264 29.0281 115.185 28.4519 116.392 27.7386C120.48 25.2418 125.309 25.9551 128.876 29.083C128.876 29.083 128.849 29.083 128.821 29.0556Z" fill="#060313"/>
<path d="M118.23 29.851C117.297 30.4272 115.788 30.7564 114.883 30.5369C115.541 31.168 117.599 30.8662 118.779 30.1528C122.373 27.5737 126.077 27.217 128.547 28.8907C126.077 26.8329 122.099 27.0798 118.23 29.851Z" fill="#060313"/>
<path d="M121.277 32.7043C120.29 33.3628 118.561 33.6646 117.546 33.1982C117.573 33.253 117.628 33.3079 117.683 33.3628C118.506 34.1859 120.564 33.8567 121.662 33.0335C124.981 30.1252 127.753 28.8082 128.987 29.3295C127.835 28.6161 124.872 29.8234 121.277 32.7043Z" fill="#060313"/>
<path d="M129.703 30.2905C129.319 31.7996 127.92 34.0769 125.642 36.6835C124.682 37.6438 122.652 38.0553 121.444 37.095C121.499 37.1773 121.554 37.2322 121.636 37.3145C122.816 38.4943 124.956 38.1925 125.917 37.2322C128.496 34.2415 129.84 31.6898 129.703 30.2905Z" fill="#060313"/>
<path d="M131.182 42.5273C133.514 38.6586 133.021 34.1314 130.332 30.6469C132.719 34.104 133.048 38.4665 130.743 42.2803C130.167 43.2132 129.179 44.0912 128.438 44.1461C129.124 44.6948 130.469 43.6796 131.182 42.5273Z" fill="#060313"/>
<path d="M121.766 47.1652C118.474 49.5248 115.099 50.0186 112.657 48.8114C115.072 49.7168 118.254 49.0858 121.355 46.8359C122.37 46.0677 123.193 44.6135 122.672 43.7355C122.754 43.7903 122.837 43.8452 122.891 43.9001C123.715 44.7232 122.891 46.342 121.766 47.1652Z" fill="#060313"/>
<path d="M110.685 47.1925C107.42 43.4885 106.597 38.5497 109.039 34.4341C109.615 33.4189 110.082 31.8824 110 31.1691C110.109 31.1691 110.219 31.1965 110.274 31.2514C110.658 31.6355 110.082 33.5561 109.368 34.7634C106.872 38.8515 107.585 43.6805 110.713 47.2474C110.713 47.2474 110.713 47.22 110.685 47.1925Z" fill="#060313"/>
<path d="M111.483 36.6016C112.06 35.6688 112.389 34.1597 112.169 33.2543C112.8 33.9128 112.499 35.9706 111.785 37.1504C109.206 40.7447 108.849 44.4487 110.523 46.9181C108.465 44.4487 108.712 40.4703 111.483 36.6016Z" fill="#060313"/>
<path d="M114.334 39.6475C114.992 38.6598 115.294 36.9312 114.827 35.916C114.882 35.9435 114.937 35.9983 114.992 36.0532C115.815 36.8763 115.486 38.9341 114.663 40.0316C111.754 43.3516 110.437 46.1227 110.959 47.3574C110.245 46.1776 111.48 43.2418 114.334 39.6475Z" fill="#060313"/>
<path d="M111.946 48.0703C113.455 47.6862 115.733 46.2869 118.339 44.0096C119.3 43.0493 119.711 41.0189 118.751 39.8116C118.833 39.8665 118.888 39.9214 118.97 40.0037C120.15 41.1835 119.848 43.3236 118.888 44.2839C115.87 46.8631 113.318 48.2075 111.946 48.0703Z" fill="#060313"/>
<path d="M124.162 49.5529C120.293 51.8851 115.766 51.3913 112.281 48.7024C115.738 51.0894 120.101 51.4187 123.915 49.1139C124.848 48.5378 125.726 47.55 125.78 46.8092C126.329 47.4677 125.314 48.8396 124.162 49.5529Z" fill="#060313"/>
<path d="M129.155 40.4981C131.68 36.8215 131.981 33.0351 130.253 30.5657C130.116 30.3737 129.978 30.209 129.814 30.017C129.677 29.8523 129.512 29.6877 129.375 29.5505C131.789 31.965 131.68 36.1355 128.799 40.1414C128.058 41.3212 127.701 43.4613 128.36 44.1198C128.415 44.2021 128.497 44.2296 128.579 44.257C128.168 43.4339 128.497 41.5681 129.155 40.4981Z" fill="#060313"/>
<path d="M126.217 37.5891C129.125 34.0771 130.36 31.1688 129.619 29.9341C130.085 31.1962 128.768 33.9399 125.887 37.2324C125.064 38.3299 124.707 40.4152 125.531 41.2657C125.613 41.3481 125.695 41.4029 125.805 41.4578C125.201 40.4701 125.503 38.6043 126.217 37.5891Z" fill="#060313"/>
<path d="M131.541 42.8847C133.05 40.3604 133.352 37.5618 132.611 34.9278C132.227 33.6657 131.651 32.4584 130.882 31.3335C130.855 31.2786 130.828 31.2512 130.8 31.1963C130.553 30.8671 130.279 30.5378 130.004 30.2086C129.95 30.1537 129.895 30.0988 129.84 30.0439C132.995 33.6108 133.681 38.4398 131.184 42.528C130.471 43.7352 129.922 45.6558 130.279 46.04C130.334 46.0948 130.443 46.1497 130.553 46.1223C130.471 45.4089 130.965 43.8999 131.541 42.8847Z" fill="#060313"/>
<path d="M116.617 28.0957C120.376 25.8184 124.793 26.2025 128.278 28.6993C128.662 28.9462 129.046 29.2206 129.375 29.5498C129.211 29.3852 129.046 29.248 128.909 29.1108C125.342 25.9555 120.513 25.2696 116.425 27.7664C115.245 28.5072 114.23 29.8791 114.888 30.5376C114.888 30.5376 114.916 30.5376 114.916 30.565C114.751 29.8242 115.629 28.7267 116.617 28.0957Z" fill="#060313"/>
<path d="M119.249 30.4554C121.91 28.5348 124.599 27.7665 126.822 28.0958C124.517 27.4647 121.609 28.0958 118.755 30.1261C117.658 30.9492 116.835 32.5406 117.658 33.3637C117.74 33.4461 117.795 33.5009 117.905 33.5558C117.411 32.6778 118.206 31.2511 119.249 30.4554Z" fill="#060313"/>
<path d="M122.244 33.2821C124.795 31.0322 127.018 29.6329 128.527 29.2213C127.128 29.139 124.631 30.4835 121.667 33.0351C120.707 33.9955 120.405 36.1081 121.585 37.288C121.667 37.3703 121.75 37.4251 121.805 37.48C120.872 36.3002 121.283 34.2698 122.244 33.2821Z" fill="#060313"/>
<path d="M122.126 47.5217C118.45 50.0459 114.663 50.3477 112.194 48.6192C112.002 48.482 111.837 48.3448 111.645 48.1802C111.481 48.043 111.316 47.8784 111.179 47.7412C113.593 50.1557 117.764 50.0459 121.77 47.165C122.949 46.4242 125.089 46.0675 125.748 46.726C125.83 46.7809 125.858 46.8632 125.885 46.9455C125.062 46.5339 123.224 46.8632 122.126 47.5217Z" fill="#060313"/>
<path d="M119.218 44.5859C115.706 47.4943 112.797 48.729 111.562 47.9882C112.825 48.4546 115.568 47.1376 118.861 44.2567C119.958 43.4336 122.044 43.0769 122.894 43.9C122.976 43.9823 123.031 44.0646 123.086 44.1744C122.098 43.5707 120.233 43.8726 119.218 44.5859Z" fill="#060313"/>
<path d="M124.515 49.9089C121.99 51.4179 119.192 51.7198 116.558 50.9789C115.296 50.5948 114.088 50.0186 112.963 49.2504C112.909 49.2229 112.881 49.1955 112.826 49.1681C112.497 48.9211 112.168 48.6468 111.838 48.3724C111.784 48.3175 111.729 48.2626 111.674 48.2078C115.241 51.3631 120.07 52.049 124.158 49.5522C125.365 48.8388 127.286 48.2901 127.67 48.6468C127.725 48.7016 127.78 48.8114 127.752 48.9211C127.039 48.8388 125.53 49.3053 124.515 49.9089Z" fill="#060313"/>
<path d="M109.725 34.9829C107.448 38.7418 107.832 43.1592 110.329 46.6438C110.576 47.0279 110.85 47.412 111.179 47.7413C111.015 47.5766 110.878 47.412 110.74 47.2748C107.585 43.708 106.899 38.879 109.396 34.7908C110.137 33.611 111.509 32.5958 112.167 33.2543C112.167 33.2543 112.167 33.2817 112.195 33.2817C111.454 33.0897 110.356 33.9677 109.725 34.9829Z" fill="#060313"/>
<path d="M112.085 37.6169C110.165 40.2784 109.397 42.9672 109.726 45.1897C109.095 42.8849 109.726 39.9765 111.756 37.123C112.579 36.0255 114.171 35.2024 114.994 36.0255C115.076 36.1079 115.131 36.1627 115.186 36.2725C114.308 35.7786 112.881 36.5743 112.085 37.6169Z" fill="#060313"/>
<path d="M114.936 40.6074C112.687 43.1591 111.287 45.3815 110.876 46.8906C110.793 45.4913 112.138 42.9945 114.689 40.0312C115.65 39.0709 117.762 38.7691 118.942 39.9489C119.025 40.0312 119.079 40.1136 119.134 40.1684C117.927 39.2356 115.897 39.6471 114.936 40.6074Z" fill="#060313"/>
<path d="M108.021 45.9299L112.987 50.8961L113.974 49.9358L108.981 44.9696L108.021 45.9299Z" fill="#060313"/>
<path d="M127.692 26.9982L131.918 31.2235L131.753 27.1902L131.726 27.1628L127.692 26.9982Z" fill="#060313"/>
<path d="M128.683 27.986L130.932 30.2358L131.756 27.1903V27.1628L128.683 27.986Z" fill="#060313"/>
<path d="M127.695 26.9982C127.448 27.2451 127.064 27.6292 127.283 27.8762L131.042 31.6351C131.289 31.882 131.7 31.4705 131.92 31.251L127.695 26.9982Z" fill="#060313"/>
<path d="M27.0283 126.13L32.7902 131.892L51.6671 111.89L47.0302 107.253L27.0283 126.13Z" fill="#060313"/>
<path d="M26.1773 126.815C26.3693 126.623 26.4517 126.431 26.3693 126.376L32.5428 132.55C32.4605 132.467 32.2684 132.577 32.1038 132.742C31.9117 132.934 31.8843 133.126 31.9666 133.181L25.7383 126.953C25.7932 127.035 25.9852 127.007 26.1773 126.815Z" fill="#060313"/>
<path opacity="0.1" d="M26.2061 126.788L32.1325 132.714C32.2972 132.55 32.4892 132.495 32.5441 132.55L26.3707 126.376C26.4256 126.431 26.3432 126.623 26.2061 126.788Z" fill="#060313"/>
<path d="M46.5345 107.582L51.336 112.383C51.5555 112.438 51.775 112.383 51.9671 112.191C52.2415 111.917 52.3238 111.615 52.214 111.313L47.632 106.731C47.3027 106.594 47.0284 106.676 46.754 106.978C46.5071 107.143 46.4796 107.362 46.5345 107.582Z" fill="#060313"/>
<path d="M46.5345 107.582L51.336 112.383C51.5555 112.438 51.775 112.383 51.9671 112.191C52.2415 111.917 52.3238 111.615 52.214 111.313L47.632 106.731C47.3027 106.594 47.0284 106.676 46.754 106.978C46.5071 107.143 46.4796 107.362 46.5345 107.582Z" fill="#060313"/>
<path d="M27.2528 125.279L33.6457 131.672C33.7006 131.891 33.6457 132.111 33.4536 132.303C33.1792 132.577 32.8774 132.659 32.5756 132.55L26.4022 126.376C26.265 126.047 26.3473 125.773 26.6491 125.498C26.8138 125.279 27.0333 125.224 27.2528 125.279Z" fill="#060313"/>
<path d="M27.2528 125.279L33.6457 131.672C33.7006 131.891 33.6457 132.111 33.4536 132.303C33.1792 132.577 32.8774 132.659 32.5756 132.55L26.4022 126.376C26.265 126.047 26.3473 125.773 26.6491 125.498C26.8138 125.279 27.0333 125.224 27.2528 125.279Z" fill="#060313"/>
<path d="M31.9659 133.181C30.8136 133.236 30.0728 132.962 28.0149 130.904C25.9571 128.846 25.6828 128.105 25.7376 126.925L31.9659 133.181Z" fill="#060313"/>
<path d="M31.9659 133.181C30.8136 133.236 30.0728 132.962 28.0149 130.904C25.9571 128.846 25.6828 128.105 25.7376 126.925L31.9659 133.181Z" fill="#060313"/>
<path d="M28.344 130.602C26.6703 128.928 25.9843 128.023 25.71 127.172C25.71 128.242 26.0666 129.011 27.9873 130.931C29.9079 132.852 30.6761 133.209 31.7462 133.209C30.9231 132.934 29.9902 132.248 28.344 130.602Z" fill="#060313"/>
<path d="M28.344 130.602C26.6703 128.928 25.9843 128.023 25.71 127.172C25.71 128.242 26.0666 129.011 27.9873 130.931C29.9079 132.852 30.6761 133.209 31.7462 133.209C30.9231 132.934 29.9902 132.248 28.344 130.602Z" fill="#060313"/>
<path d="M28.9232 131.782C28.4842 132.139 27.7982 132.084 27.3318 131.617C26.8654 131.151 26.783 130.438 27.1672 130.026L28.9232 131.782Z" fill="#060313"/>
<path d="M28.9232 131.782C28.4842 132.139 27.7982 132.084 27.3318 131.617C26.8654 131.151 26.783 130.438 27.1672 130.026L28.9232 131.782Z" fill="#060313"/>
<path d="M27.6057 131.343C27.3313 131.068 27.1118 130.767 26.9472 130.492C26.8649 130.876 27.002 131.315 27.3313 131.645C27.6605 131.974 28.0995 132.111 28.4837 132.029C28.1818 131.837 27.88 131.617 27.6057 131.343Z" fill="#060313"/>
<path d="M27.6057 131.343C27.3313 131.068 27.1118 130.767 26.9472 130.492C26.8649 130.876 27.002 131.315 27.3313 131.645C27.6605 131.974 28.0995 132.111 28.4837 132.029C28.1818 131.837 27.88 131.617 27.6057 131.343Z" fill="#060313"/>
<path d="M27.9338 130.986C28.2356 131.288 28.5099 131.589 28.7843 131.864C28.8118 131.836 28.8666 131.809 28.8941 131.781L27.1106 129.998C27.0832 130.025 27.0558 130.08 27.0283 130.108C27.3576 130.41 27.6594 130.684 27.9338 130.986Z" fill="#060313"/>
<path d="M27.9338 130.986C28.2356 131.288 28.5099 131.589 28.7843 131.864C28.8118 131.836 28.8666 131.809 28.8941 131.781L27.1106 129.998C27.0832 130.025 27.0558 130.08 27.0283 130.108C27.3576 130.41 27.6594 130.684 27.9338 130.986Z" fill="#060313"/>
<path d="M31.7434 125.608C31.2769 126.074 31.2769 126.815 31.7434 127.254C32.2098 127.721 32.9506 127.721 33.3896 127.254L47.7668 112.52C48.1235 112.164 48.1235 111.587 47.7668 111.231C47.4102 110.874 46.834 110.874 46.4773 111.231L31.7434 125.608Z" fill="#060313"/>
<path d="M47.6571 111.341C47.9589 111.643 47.9589 112.137 47.6571 112.438L33.3073 127.172C32.8958 127.584 32.2647 127.584 31.8531 127.172C31.4416 126.761 31.4416 126.13 31.8531 125.718L46.587 111.341C46.8614 111.039 47.3553 111.039 47.6571 111.341ZM47.7668 111.259C47.4102 110.902 46.834 110.902 46.4773 111.259L31.7434 125.636C31.2769 126.102 31.2769 126.843 31.7434 127.282C32.2098 127.749 32.9506 127.749 33.3896 127.282L47.7668 112.548C48.1235 112.191 48.1235 111.615 47.7668 111.259Z" fill="#060313"/>
<path d="M34.132 127.995C33.693 128.462 33.5284 129.038 33.7753 129.312C34.0222 129.586 34.5984 129.394 35.0374 128.928L49.1403 113.947C49.4969 113.59 49.6067 113.124 49.4146 112.932C49.2226 112.74 48.7561 112.877 48.4269 113.234L34.132 127.995Z" fill="#060313"/>
<path d="M33.8849 129.202C33.7203 129.038 33.8026 128.516 34.2416 128.105L48.5365 113.316C48.7286 113.097 48.9755 112.959 49.1676 112.959C49.2499 112.959 49.2774 112.987 49.3322 113.014C49.3597 113.042 49.3597 113.097 49.3871 113.124L49.4969 113.014C49.4694 112.987 49.4694 112.959 49.442 112.932C49.2499 112.74 48.7835 112.877 48.4542 113.234L34.1593 128.023C33.7203 128.489 33.5557 129.065 33.8026 129.34L33.8849 129.202Z" fill="#060313"/>
<path d="M30.9489 124.84C30.4824 125.279 29.9062 125.444 29.6319 125.197C29.3849 124.95 29.5495 124.373 30.016 123.934L44.9968 109.832C45.3535 109.475 45.8199 109.365 46.012 109.557C46.2041 109.749 46.0669 110.216 45.7102 110.545L30.9489 124.84Z" fill="#060313"/>
<path d="M46.0427 109.53C46.0153 109.502 46.0153 109.502 45.9879 109.502L45.8781 109.612C45.9055 109.612 45.933 109.612 45.933 109.64C45.9604 109.667 45.9879 109.722 45.9879 109.804C45.9879 109.996 45.8507 110.243 45.6312 110.435L30.8424 124.73C30.4034 125.142 29.9095 125.251 29.7175 125.087C29.6626 125.032 29.6626 124.977 29.6351 124.895L29.5254 125.004C29.5528 125.059 29.5803 125.114 29.6077 125.169C29.8546 125.416 30.4583 125.279 30.9247 124.812L45.7135 110.518C46.125 110.188 46.2348 109.749 46.0427 109.53Z" fill="#060313"/>
<path d="M50.3521 113.289L45.6328 108.57L45.9072 108.213L50.7087 113.015L50.3521 113.289Z" fill="#060313"/>
<path d="M52.8155 110.683L48.2334 106.073L48.5901 105.799L53.1173 110.326L52.8155 110.683Z" fill="#060313"/>
<path d="M45.9053 108.213L50.7068 113.015L51.3379 112.383L46.5363 107.582L45.9053 108.213Z" fill="#060313"/>
<path d="M27.251 125.279L33.6439 131.671L33.8634 131.452C34.0829 131.232 34.0829 130.848 33.8634 130.629L28.2936 125.059C28.0741 124.84 27.69 124.84 27.4705 125.059L27.251 125.279Z" fill="#060313"/>
<path d="M27.251 125.279L33.6439 131.671L33.8634 131.452C34.0829 131.232 34.0829 130.848 33.8634 130.629L28.2936 125.059C28.0741 124.84 27.69 124.84 27.4705 125.059L27.251 125.279Z" fill="#060313"/>
<path d="M47.6055 106.704L52.215 111.286L52.846 110.655L48.2365 106.073L47.6055 106.704Z" fill="#060313"/>
<path d="M120.26 25.7633C122.702 25.7633 125.144 26.4492 127.284 27.8485C127.092 27.6016 127.476 27.2175 127.696 26.998L131.729 27.1626L131.757 27.19L131.921 31.2233C131.729 31.4154 131.455 31.6898 131.208 31.6898C131.153 31.6898 131.098 31.6623 131.043 31.6349C133.842 35.9151 133.814 41.5124 130.988 45.7926C130.824 46.0396 130.632 46.1219 130.494 46.1219C130.412 46.1219 130.33 46.0944 130.275 46.0396C129.918 46.5334 129.507 46.9999 129.068 47.4389C128.629 47.8779 128.162 48.2894 127.668 48.6461C127.806 48.8107 127.806 49.0851 127.394 49.3595C125.254 50.7862 122.757 51.4996 120.26 51.4996C118.01 51.4996 115.788 50.9234 113.785 49.7711L113.95 49.9357L112.989 50.896L112.468 50.9783L53.0934 110.353L52.8464 110.655L52.2154 111.286L52.1879 111.258L52.2154 111.286C52.3525 111.615 52.2702 111.889 51.9684 112.164C51.8038 112.328 51.6666 112.383 51.502 112.383C51.4471 112.383 51.3922 112.383 51.3374 112.356L50.7063 112.987L50.4045 113.206L33.9146 130.684C34.0792 130.904 34.0518 131.233 33.8597 131.425L33.6402 131.644C33.6951 131.864 33.6402 132.083 33.4481 132.275C33.2561 132.468 33.064 132.577 32.8445 132.577C32.7622 132.577 32.6525 132.55 32.5427 132.522C32.5153 132.495 32.5153 132.495 32.4604 132.495C32.433 132.495 32.4055 132.495 32.3781 132.522H32.3506C32.2683 132.55 32.186 132.605 32.1037 132.687L32.0763 132.714C31.8842 132.907 31.8568 133.099 31.9391 133.153C31.8568 133.153 31.8019 133.153 31.7196 133.153C30.8416 133.153 30.1831 132.907 28.8935 131.727C28.7015 131.891 28.482 131.974 28.235 131.974C27.9058 131.974 27.5765 131.836 27.3022 131.562C26.8357 131.096 26.7534 130.382 27.1375 129.971C25.8754 128.571 25.6834 127.885 25.7108 126.898C25.7382 126.925 25.7657 126.925 25.8205 126.925C25.9029 126.925 26.04 126.87 26.1498 126.761L26.1772 126.733C26.2595 126.651 26.3144 126.568 26.3418 126.486V126.459C26.3418 126.431 26.3693 126.404 26.3693 126.376C26.3693 126.349 26.3693 126.322 26.3418 126.294C26.2047 125.965 26.287 125.69 26.5888 125.416C26.7534 125.251 26.8906 125.197 27.0552 125.197C27.1101 125.197 27.165 125.197 27.2198 125.224L27.4393 125.005C27.5491 124.895 27.6863 124.84 27.8509 124.84C27.9881 124.84 28.0978 124.867 28.2076 124.95L45.6578 108.487L45.9047 108.158L46.5358 107.527C46.4809 107.307 46.5358 107.088 46.7279 106.896C46.9199 106.704 47.112 106.594 47.3315 106.594C47.4138 106.594 47.5236 106.621 47.6333 106.649L47.6882 106.704L47.6333 106.649L48.2644 106.018L48.621 105.743L107.968 46.4511L108.051 45.9298L108.27 46.1493L108.051 45.9298L109.011 44.9695L109.148 45.1067C106.706 40.9088 106.843 35.5859 109.56 31.5251C109.724 31.2782 109.916 31.1959 110.053 31.1959C110.136 31.1959 110.218 31.2233 110.273 31.2782C110.63 30.7843 111.041 30.3179 111.48 29.8789C111.919 29.4399 112.386 29.0283 112.88 28.6717C112.742 28.507 112.742 28.2327 113.154 27.9583C115.294 26.4767 117.763 25.7633 120.26 25.7633ZM121.605 26.2572C121.632 26.2572 121.66 26.2572 121.687 26.2572C123.717 26.2572 125.693 26.8882 127.476 28.0406C125.693 26.8882 123.69 26.2572 121.687 26.2572C121.66 26.2572 121.605 26.2572 121.577 26.2572C121.577 26.2572 121.577 26.2572 121.605 26.2572ZM109.368 45.3262C108.407 43.6525 107.886 41.8142 107.913 39.9484V39.921C107.858 41.7868 108.38 43.6251 109.368 45.3262ZM120.26 25.6261V25.7633V25.6261C117.681 25.6261 115.184 26.3669 113.072 27.7937C112.77 27.9857 112.687 28.2052 112.66 28.3424C112.66 28.4247 112.66 28.507 112.687 28.5893C112.221 28.946 111.782 29.3302 111.37 29.7417C110.959 30.1533 110.575 30.5923 110.218 31.0587C110.163 31.0313 110.108 31.0313 110.026 31.0313C109.861 31.0313 109.642 31.1136 109.422 31.4428C106.761 35.4487 106.541 40.6893 108.846 44.9146L107.913 45.8475C107.886 45.8749 107.858 45.9298 107.886 45.9572L107.804 46.4237L48.5113 105.689L48.1821 105.935L48.1546 105.963L47.5784 106.539C47.4961 106.512 47.4138 106.512 47.3315 106.512C47.0846 106.512 46.8651 106.621 46.6181 106.841C46.3986 107.06 46.3163 107.28 46.3712 107.527L45.795 108.103L45.5481 108.46L28.2076 124.84C28.0978 124.785 27.9881 124.758 27.8783 124.758C27.6863 124.758 27.5217 124.84 27.3845 124.977L27.2198 125.142C27.165 125.142 27.1375 125.142 27.1101 125.142C26.8906 125.142 26.6985 125.224 26.5339 125.389C26.2047 125.718 26.1223 126.075 26.2595 126.431C26.2595 126.431 26.2595 126.431 26.2595 126.459V126.486L26.3967 126.541L26.2595 126.514C26.2321 126.568 26.1772 126.623 26.1223 126.706L26.0949 126.733C25.9852 126.843 25.9029 126.87 25.848 126.87C25.8205 126.843 25.7931 126.843 25.7382 126.843C25.7108 126.843 25.7108 126.843 25.6834 126.843C25.6285 126.87 25.601 126.925 25.601 126.98C25.5736 127.968 25.7657 128.681 26.9729 130.053C26.6437 130.547 26.7534 131.26 27.2198 131.754C27.4942 132.029 27.8783 132.193 28.2625 132.193C28.5094 132.193 28.7289 132.138 28.921 132.001C30.2105 133.153 30.8965 133.373 31.747 133.373C31.8293 133.373 31.8842 133.373 31.9665 133.373C32.0214 133.373 32.0763 133.346 32.1037 133.291C32.1311 133.236 32.1037 133.181 32.0763 133.153C32.0763 133.153 32.1037 133.044 32.2135 132.907L32.2409 132.879C32.2958 132.824 32.3781 132.769 32.433 132.742C32.4604 132.742 32.4604 132.742 32.4878 132.742C32.4878 132.742 32.4878 132.742 32.5153 132.742C32.625 132.797 32.7348 132.824 32.872 132.824C33.1189 132.824 33.3384 132.714 33.5853 132.495C33.8048 132.275 33.8871 132.056 33.8323 131.809L33.9969 131.644C34.2164 131.425 34.2713 131.096 34.1341 130.821L50.5691 113.426L50.8435 113.206L51.4471 112.63C51.502 112.63 51.5294 112.63 51.5569 112.63C51.7764 112.63 51.9684 112.548 52.133 112.383C52.4349 112.081 52.5446 111.752 52.4349 111.423L53.011 110.847L53.0385 110.819L53.258 110.518L112.523 51.1155L112.962 51.0606H112.989C113.017 51.0606 113.072 51.0606 113.072 51.0332L114.004 50.1003C115.925 51.1429 118.065 51.6917 120.26 51.6917C122.839 51.6917 125.336 50.9509 127.449 49.5241C127.751 49.3321 127.833 49.1126 127.86 48.9754C127.86 48.8931 127.86 48.8107 127.833 48.7284C128.299 48.3717 128.738 47.9876 129.15 47.5761C129.562 47.1645 129.946 46.7255 130.302 46.2591C130.357 46.2865 130.412 46.2865 130.467 46.2865C130.632 46.2865 130.851 46.2042 131.071 45.8749C133.897 41.6221 133.979 36.1621 131.29 31.827C131.51 31.7721 131.757 31.5526 131.976 31.3331C132.003 31.3057 132.031 31.2782 132.003 31.2233L131.839 27.19C131.839 27.1626 131.811 27.1077 131.811 27.1077C131.784 27.0803 131.729 27.0528 131.702 27.0528L127.668 26.8882C127.641 26.8882 127.586 26.9157 127.559 26.9431C127.394 27.1077 127.147 27.3547 127.065 27.6016C125.062 26.312 122.702 25.6261 120.26 25.6261Z" fill="#060313"/>
<path d="M66.8696 123.085L79.5183 125.61L92.1669 123.085V128.134H66.8696V123.085ZM66.7324 122.921V123.085V128.134V128.271H66.8696H92.1669H92.3041V128.134V123.085V122.921L92.1395 122.948L79.5183 125.472L66.897 122.948L66.7324 122.921Z" fill="#060313"/>
<path d="M79.4622 9.93262L84.7302 15.5024V127.447H74.2217V15.5024L79.4622 9.93262Z" fill="#060313"/>
<path d="M74.219 127.53H74.1367V15.5028L79.4047 9.90558L79.4596 9.85071L84.755 15.5028L84.7825 15.5303V127.502V127.585H74.219V127.53ZM79.4596 10.0153L74.3013 15.5303V127.365H84.6727V15.5303L79.4596 10.0153Z" fill="#060313"/>
<path d="M79.5137 23.5144V127.338C79.8978 127.338 80.1996 127.036 80.1996 126.679V24.1729C80.1996 23.8162 79.8978 23.5144 79.5137 23.5144Z" fill="#060313"/>
<path d="M78.8301 24.1729V126.679C78.8301 127.036 79.1319 127.31 79.516 127.338V23.5144C79.1319 23.5418 78.8301 23.8162 78.8301 24.1729Z" fill="#50D074"/>
<path d="M76.2309 143.471L75.8193 128.134H83.1451L82.7336 143.471H76.2309Z" fill="#060313"/>
<path d="M76.2289 143.47L76.1191 139.931L82.759 142.62L82.7316 143.47H76.2289Z" fill="#060313"/>
<path d="M76.0283 136.173L76.1106 139.932L82.7505 142.621L82.8328 138.916L76.0283 136.173Z" fill="#060313"/>
<path d="M75.9238 132.303L76.0336 136.172L82.8381 138.916L82.9478 135.102L75.9238 132.303Z" fill="#060313"/>
<path d="M75.8193 128.134L75.9291 132.304L82.9531 135.103L83.0628 131.207L75.8193 128.134Z" fill="#060313"/>
<path d="M82.7545 142.73C82.7271 142.73 82.7271 142.73 82.6996 142.73L76.0598 140.069C76.0049 140.041 75.9775 139.986 76.0049 139.931C76.0323 139.877 76.0872 139.849 76.1421 139.877L82.7819 142.538C82.8368 142.565 82.8643 142.62 82.8368 142.675C82.8368 142.703 82.8094 142.73 82.7545 142.73Z" fill="#060313"/>
<path d="M82.8343 139.026C82.8068 139.026 82.8068 139.026 82.7794 139.026L75.9475 136.282C75.8926 136.255 75.8652 136.2 75.8926 136.145C75.92 136.09 75.9749 136.063 76.0298 136.09L82.8617 138.834C82.9166 138.861 82.944 138.916 82.9166 138.971C82.944 138.999 82.8892 139.026 82.8343 139.026Z" fill="#060313"/>
<path d="M82.9492 135.212C82.9217 135.212 82.9217 135.212 82.8943 135.212L75.8703 132.414C75.8155 132.386 75.788 132.331 75.8155 132.277C75.8429 132.222 75.8978 132.194 75.9526 132.222L82.9766 135.02C83.0315 135.048 83.0589 135.103 83.0315 135.158C83.0315 135.185 83.0041 135.212 82.9492 135.212Z" fill="#060313"/>
<path d="M83.0574 131.316C83.0299 131.316 83.0299 131.316 83.0025 131.316L75.759 128.243C75.7041 128.216 75.6767 128.161 75.7041 128.106C75.7316 128.051 75.7864 128.024 75.8413 128.051L83.0848 131.124C83.1397 131.152 83.1671 131.207 83.1397 131.261C83.1397 131.289 83.0848 131.316 83.0574 131.316Z" fill="#060313"/>
<path d="M82.7545 142.977C82.7271 142.977 82.7271 142.977 82.6996 142.977L76.0598 140.315C76.0049 140.288 75.9775 140.233 76.0049 140.178C76.0323 140.123 76.0872 140.096 76.1421 140.123L82.7819 142.784C82.8368 142.812 82.8643 142.867 82.8368 142.922C82.8368 142.949 82.8094 142.977 82.7545 142.977Z" fill="#060313"/>
<path d="M82.8343 139.272C82.8068 139.272 82.8068 139.272 82.7794 139.272L75.9475 136.529C75.8926 136.501 75.8652 136.446 75.8926 136.392C75.92 136.337 75.9749 136.309 76.0298 136.337L82.8617 139.08C82.9166 139.108 82.944 139.163 82.9166 139.218C82.944 139.245 82.8892 139.272 82.8343 139.272Z" fill="#060313"/>
<path d="M82.9492 135.459C82.9217 135.459 82.9217 135.459 82.8943 135.459L75.8703 132.66C75.8155 132.633 75.788 132.578 75.8155 132.523C75.8429 132.468 75.8978 132.441 75.9526 132.468L82.9766 135.267C83.0315 135.294 83.0589 135.349 83.0315 135.404C83.0315 135.432 83.0041 135.459 82.9492 135.459Z" fill="#060313"/>
<path d="M83.0582 131.563C83.0308 131.563 83.0308 131.563 83.0034 131.563L75.7873 128.49C75.7324 128.462 75.705 128.408 75.7324 128.353C75.7599 128.298 75.8148 128.27 75.8696 128.298L83.1131 131.371C83.168 131.398 83.1954 131.453 83.168 131.508C83.1405 131.535 83.0857 131.563 83.0582 131.563Z" fill="#060313"/>
<path d="M76.1953 142.291L76.2228 143.471H82.7254L82.7529 142.072C80.6951 142.84 78.5001 142.977 76.1953 142.291Z" fill="#060313"/>
<path d="M76.1459 143.553L75.7344 128.133V128.051H83.115H83.1974L82.7858 143.526L76.1459 143.553ZM75.899 128.216L76.2831 143.416H82.6486L83.0327 128.216H75.899Z" fill="#060313"/>
<path d="M73.5689 141.413C73.6786 141.413 73.8981 141.55 74.2548 141.742C76.1205 142.702 77.8765 143.141 79.5777 143.141C81.3885 143.141 83.0897 142.647 84.7633 141.742C85.0926 141.55 85.2846 141.44 85.3944 141.44C85.5041 141.44 85.4767 141.632 85.3944 142.153C84.9554 144.733 82.486 147.229 79.4953 147.229C76.5047 147.229 74.0353 144.733 73.5963 142.153C73.4865 141.605 73.4591 141.413 73.5689 141.413ZM73.5689 141.275C73.514 141.275 73.4317 141.303 73.4042 141.358C73.2945 141.467 73.3494 141.687 73.4317 142.153C73.8432 144.65 76.2852 147.339 79.4679 147.339C82.6506 147.339 85.0926 144.65 85.5041 142.153L85.5316 142.071C85.6139 141.632 85.6413 141.467 85.5316 141.358C85.5041 141.303 85.4493 141.275 85.367 141.275C85.2572 141.275 85.12 141.358 84.8731 141.495L84.681 141.605C83.0073 142.538 81.3062 143.004 79.5777 143.004C77.8765 143.004 76.0931 142.538 74.3097 141.632C74.1999 141.577 74.0902 141.522 74.0079 141.467C73.8158 141.33 73.6786 141.275 73.5689 141.275Z" fill="#060313"/>
<path d="M85.3903 142.127C84.9513 144.706 82.4819 147.203 79.4912 147.203C76.5006 147.203 74.0312 144.706 73.5922 142.127C73.4276 141.166 73.4824 141.331 74.3056 141.742C78.1468 143.718 81.6039 143.498 84.8141 141.715C85.5549 141.303 85.5275 141.221 85.3903 142.127Z" fill="#060313"/>
<path d="M79.5209 146.434C76.8595 146.407 74.5548 144.761 73.6768 142.566C74.3078 144.98 76.6674 147.202 79.4935 147.202C82.1275 147.202 84.3499 145.282 85.1456 143.059C84.1853 145.035 82.0452 146.462 79.5209 146.434Z" fill="#060313"/>
<path d="M73.5655 141.441C75.0471 142.73 77.9006 143.69 79.5743 143.69C81.3852 143.69 83.9094 142.922 85.391 141.468C85.4185 141.441 85.4185 141.441 85.4459 141.413C85.3636 141.358 85.1715 141.495 84.7874 141.715C81.5772 143.498 78.1201 143.69 74.2789 141.742C73.8399 141.523 73.6204 141.386 73.5655 141.441C73.5381 141.441 73.5381 141.441 73.5655 141.441Z" fill="#060313"/>
<path d="M74.2773 124.265V124.566L79.5179 125.664L84.6487 124.566V124.265L79.5179 125.362L74.2773 124.265Z" fill="#060313"/>
<path d="M67.1719 127.804V123.469L79.5187 125.938L91.8381 123.469V127.804H67.1719Z" fill="#060313"/>
<path d="M91.6961 127.694H67.3042L66.8652 128.133H92.1351L91.6961 127.694Z" fill="#060313"/>
<path d="M91.6959 123.634L92.1349 123.085L79.5137 125.61V126.076L91.6959 123.634Z" fill="#060313"/>
<path d="M79.5139 126.076V125.61L66.8652 123.085L67.3042 123.634L79.5139 126.076Z" fill="#060313"/>
<path d="M67.3042 123.634L66.8652 123.085V128.134L67.3042 127.695V123.634Z" fill="#060313"/>
<path d="M91.7031 123.634V127.695L92.1421 128.134V123.085L91.7031 123.634Z" fill="#060313"/>
<g opacity="0.1">
<path d="M79.5112 47.7683C61.7592 47.7683 47.3545 62.173 47.3545 79.925C47.3545 97.677 61.7592 112.082 79.5112 112.082C97.2632 112.082 111.668 97.677 111.668 79.925C111.695 62.173 97.2906 47.7683 79.5112 47.7683ZM79.4014 110.435C62.5274 110.435 48.8361 96.7441 48.8361 79.8701C48.8361 62.9961 62.5274 49.3048 79.4014 49.3048C96.2755 49.3048 109.967 62.9961 109.967 79.8701C109.967 96.7441 96.3029 110.435 79.4014 110.435Z" fill="#060313"/>
</g>
<path d="M79.5156 47.1926C97.2676 47.1926 111.672 61.5973 111.672 79.3493C111.672 97.1013 97.2676 111.506 79.5156 111.506C61.7635 111.506 47.3589 97.1013 47.3589 79.3493C47.3589 61.5973 61.7635 47.1926 79.5156 47.1926ZM79.4058 109.887C96.2798 109.887 109.971 96.1959 109.971 79.3218C109.971 62.4478 96.2798 48.7565 79.4058 48.7565C62.5318 48.7565 48.8405 62.4478 48.8405 79.3218C48.8405 96.1959 62.5318 109.887 79.4058 109.887ZM79.5156 47.0554C61.7086 47.0554 47.2217 61.5424 47.2217 79.3493C47.2217 97.1562 61.7086 111.643 79.5156 111.643C97.3225 111.643 111.809 97.1562 111.809 79.3493C111.837 61.5424 97.3499 47.0554 79.5156 47.0554ZM79.4058 109.75C62.6141 109.75 48.9777 96.0861 48.9777 79.3218C48.9777 62.5576 62.6415 48.8937 79.4058 48.8937C96.1701 48.8937 109.834 62.5576 109.834 79.3218C109.834 96.0861 96.1975 109.75 79.4058 109.75Z" fill="#060313"/>
<path d="M79.5132 110.106C62.5569 110.106 48.7559 96.3054 48.7559 79.3491C48.7559 62.3927 62.5569 48.6191 79.5132 48.6191C96.4696 48.6191 110.271 62.4202 110.271 79.3765C110.271 96.3329 96.4696 110.106 79.5132 110.106Z" fill="#50D074"/>
<path d="M79.1546 104.399C78.6881 104.097 77.865 103.576 77.426 103.192C74.9566 101.106 73.2555 98.1981 72.6519 95.0428H64.2012V57.9474L65.1889 58.551C69.3045 61.1027 72.1032 65.4927 72.7068 70.2942L73.914 81.1869H73.2007C71.8837 81.1869 70.8136 82.2295 70.8136 83.5191C70.8136 84.8361 71.8837 85.9061 73.2007 85.9061C73.5025 85.9061 73.7768 85.8513 74.0238 85.7415C76.548 81.6259 77.8925 76.9067 77.8925 72.1325L77.5083 59.5387C77.5083 57.8376 78.0296 56.2463 79.0174 54.8744L79.5387 54.161L80.06 54.8744C81.0478 56.2463 81.5965 57.8651 81.5965 59.5387L81.2124 72.1325C81.2124 76.9067 82.5294 81.6259 84.9988 85.7415C85.328 85.8513 85.6024 85.9061 85.9042 85.9061C87.1937 85.9061 88.2364 84.8361 88.2364 83.5191C88.2364 82.257 87.1663 81.1869 85.9042 81.1869H85.1908L85.2183 80.4735L86.4255 70.2942C87.0017 65.4927 89.8003 61.1027 93.9434 58.551L94.9311 57.9474V95.0428H86.3981C85.7944 98.1981 84.1482 101.024 81.5965 103.192C81.185 103.548 80.3618 104.097 79.9228 104.372L79.5113 104.618L79.1546 104.399ZM75.67 95.0428C75.9993 96.8262 76.8498 98.5274 78.0845 99.9267V95.0428H75.67ZM80.9654 99.9267C82.1453 98.5822 82.9684 96.8811 83.2976 95.0428H80.9654V99.9267ZM91.9679 92.2442V84.9458H90.8429C90.2667 87.1134 88.3736 88.6224 86.1511 88.7048C86.4804 89.9669 86.645 91.1467 86.645 92.2442H91.9679ZM83.7366 92.2442C83.7366 91.2564 83.5994 90.2961 83.3799 89.4181C82.0355 89.6651 81.0478 90.8174 80.9654 92.2442H83.7366ZM78.0845 92.2442C78.0022 90.8174 77.0145 89.6376 75.67 89.4181C75.3957 90.2687 75.2585 91.2016 75.2585 92.2442H78.0845ZM72.4324 92.2442C72.4324 90.8723 72.597 89.7199 72.9263 88.7048C70.7038 88.6224 68.8381 87.1134 68.1796 84.9458H67.0547V92.2442H72.4324ZM79.3741 88.5676L82.2001 86.7567C81.0203 84.6714 80.1972 82.7234 79.5113 80.3912C78.8802 82.6136 78.0571 84.4794 76.7675 86.7018L79.3741 88.5676ZM68.1522 82.1198C68.5912 80.6381 69.524 79.5132 70.8136 78.8822L69.8807 70.6509C69.5515 68.1541 68.5912 65.8219 67.0547 63.9287V82.1198H68.1522ZM91.9679 82.1198V63.9287C90.4588 65.8768 89.4985 68.1541 89.1967 70.596L88.2089 78.8822C89.5534 79.5955 90.4862 80.7205 90.8429 82.0923H91.9679V82.1198Z" fill="#060313"/>
<path d="M79.5112 47.1923C61.7592 47.1923 47.3545 61.5969 47.3545 79.3489C47.3545 97.101 61.7592 111.506 79.5112 111.506C97.2632 111.506 111.668 97.101 111.668 79.3489C111.695 61.5969 97.2906 47.1923 79.5112 47.1923ZM79.4014 109.887C62.5274 109.887 48.8361 96.1955 48.8361 79.3215C48.8361 62.4475 62.5274 48.7562 79.4014 48.7562C96.2755 48.7562 109.967 62.4475 109.967 79.3215C109.967 96.1955 96.3029 109.887 79.4014 109.887Z" fill="#060313"/>
<path d="M79.4042 48.7289C62.5302 48.7289 48.8389 62.4202 48.8389 79.2942C48.8389 96.1682 62.5302 109.86 79.4042 109.86C96.2782 109.86 109.969 96.1682 109.969 79.2942C109.969 62.4202 96.3056 48.7289 79.4042 48.7289ZM79.5139 108.707C63.3258 108.707 50.1559 95.5372 50.1559 79.3491C50.1559 63.161 63.3258 49.991 79.5139 49.991C95.702 49.991 108.872 63.161 108.872 79.3491C108.872 95.5372 95.702 108.707 79.5139 108.707Z" fill="#060313"/>
<path d="M79.5115 111.039C62.0339 111.039 47.8213 96.8265 47.8213 79.3488C47.8213 61.8712 62.0339 47.6586 79.5115 47.6586C96.9892 47.6586 111.202 61.8712 111.202 79.3488C111.202 96.8265 96.9892 111.039 79.5115 111.039ZM79.5115 49.5243C63.0765 49.5243 49.687 62.9138 49.687 79.3488C49.687 95.7838 63.0765 109.173 79.5115 109.173C95.9466 109.173 109.336 95.7838 109.336 79.3488C109.336 62.9138 95.974 49.5243 79.5115 49.5243Z" fill="#060313"/>
<path d="M79.5117 103.686C79.1276 103.439 78.2496 102.836 77.8106 102.479C75.3138 100.339 73.7224 97.5676 73.1462 94.4671L73.0914 94.1928H64.6406V58.4418C68.7837 60.9111 71.5823 65.1914 72.1585 69.9655L73.3932 80.3368C73.3109 80.3368 73.2285 80.3368 73.1737 80.3368C71.6372 80.3368 70.3476 81.6264 70.3476 83.1355C70.3476 84.7268 71.6097 86.0164 73.1737 86.0164C73.5304 86.0164 73.9145 85.9341 74.2986 85.7969L74.4084 85.7695L74.4632 85.6871C76.9875 81.4892 78.3319 76.6877 78.3319 71.8038L77.9478 59.21C77.9478 57.5638 78.4965 55.9998 79.5117 54.6554C80.5269 55.9724 81.0757 57.5363 81.0757 59.21L80.6915 71.8038C80.6915 76.7151 82.036 81.5167 84.5602 85.7146L84.6151 85.7969L84.7248 85.8243C85.109 85.989 85.4931 86.0438 85.8498 86.0438C87.4137 86.0438 88.6758 84.7543 88.6758 83.1629C88.6758 81.6538 87.3863 80.3643 85.8498 80.3643C85.7675 80.3643 85.6851 80.3643 85.6303 80.3643L86.865 69.9929C87.4411 65.1914 90.2398 60.9386 94.3828 58.4692V94.1928H85.9321L85.8772 94.4671C85.3285 97.5676 83.7097 100.339 81.2128 102.479C80.7738 102.836 79.8958 103.439 79.5117 103.686ZM80.472 100.75L81.0208 100.174C82.4475 98.6925 83.4353 96.6896 83.792 94.5769L83.8468 94.1928H80.472V100.75ZM75.204 94.5769C75.5607 96.6896 76.5485 98.6925 77.9752 100.174L78.524 100.75V94.1928H75.1492L75.204 94.5769ZM85.6028 88.2663C85.9595 89.6381 86.1241 90.8728 86.1241 92.0252V92.3544H92.4348V84.0958H90.4318L90.3769 84.3427C89.8831 86.428 88.0448 87.8821 85.9046 87.8821H85.4931L85.6028 88.2663ZM83.4353 88.5406C81.7067 88.7601 80.472 90.2418 80.472 92.0252V92.3544H84.2035V92.0252C84.2035 90.8728 84.0663 89.7753 83.792 88.7601L83.7096 88.4858L83.4353 88.5406ZM75.2315 88.7601C74.9571 89.7753 74.8199 90.8728 74.8199 92.0252V92.3544H78.5514V92.0252C78.5514 90.2418 77.2893 88.7601 75.5882 88.5406L75.3138 88.5132L75.2315 88.7601ZM66.5887 92.3544H72.8993V92.0252C72.8993 90.8454 73.0639 89.6381 73.4206 88.2663L73.5304 87.8547H73.1188C70.9787 87.8547 69.1404 86.4005 68.6465 84.3153L68.5916 84.0683H66.5887V92.3544ZM79.2099 79.3491C78.4965 81.9557 77.6185 84.0135 76.329 86.2908L76.1643 86.5651L79.5117 88.7053L82.8591 86.5651L82.6945 86.2908C81.4049 84.0409 80.5269 81.9557 79.8135 79.3491L79.5117 78.2516L79.2099 79.3491ZM91.886 62.9141C90.1574 64.9993 89.0599 67.5236 88.7033 70.185L87.6606 78.8278L87.8527 78.9375C89.1697 79.596 90.0751 80.6935 90.3769 82.0105L90.4318 82.2575H92.4348V62.2556L91.886 62.9141ZM66.5887 82.23H68.5916L68.6465 81.9831C68.9483 80.6661 69.8537 79.5686 71.1707 78.9101L71.3628 78.8003L70.3202 70.1576C69.9909 67.4961 68.8934 64.9719 67.1374 62.8866L66.5612 62.2007V82.23H66.5887Z" fill="#060313"/>
<path d="M88.5348 70.1578L87.4922 78.9103L88.0135 78.6359L89.0287 70.2401C89.3579 67.5786 90.4554 65.1641 92.1291 63.1338L92.5956 61.8168L91.745 62.832C89.989 64.9172 88.8915 67.4414 88.5348 70.1578Z" fill="#060313"/>
<path d="M85.7948 80.1717L87.0021 69.9924C87.5508 65.3554 90.2397 61.1849 94.2181 58.7156L94.6846 57.8925C90.1574 60.3893 87.1393 64.8341 86.5082 69.9375L85.2461 80.7204L85.8497 80.1991C85.8223 80.1717 85.8223 80.1717 85.7948 80.1717Z" fill="#060313"/>
<path d="M92.1357 81.9005L92.6022 82.3943V61.7888L92.1357 63.1058V81.9005Z" fill="#060313"/>
<path d="M92.1357 84.3975V92.0251L92.6022 92.5189V83.931L92.1357 84.3975Z" fill="#060313"/>
<path d="M94.1924 58.7159V94.0279L94.6863 94.5218V57.8654L94.1924 58.7159Z" fill="#060313"/>
<path d="M92.6006 83.931H90.3232L90.7074 84.3975H92.1341L92.6006 83.931Z" fill="#060313"/>
<path d="M92.1341 81.901H90.7074L90.3232 82.3949H92.6006L92.1341 81.901Z" fill="#060313"/>
<path d="M80.8034 94.522L80.3369 94.0281V101.134L80.8034 99.9546V94.522Z" fill="#060313"/>
<path d="M80.3369 92.0256V92.492L80.8034 92.0256C80.8034 90.4068 81.9557 89.0623 83.4922 88.8428L83.8489 88.3215L83.4373 88.3764C81.6265 88.6233 80.3369 90.1598 80.3369 92.0256Z" fill="#060313"/>
<path d="M80.8034 94.522H83.4922L84.0684 94.0281H80.3369L80.8034 94.522Z" fill="#060313"/>
<path d="M80.8034 92.025L80.3369 92.5189H84.3702L83.9038 92.025H80.8034Z" fill="#060313"/>
<path d="M83.9588 94.6039L84.0411 94.0552L83.4649 94.5216C83.1356 96.552 82.2028 98.4726 80.776 99.9542L80.3096 101.134L81.1327 100.283C82.6143 98.7744 83.6021 96.744 83.9588 94.6039Z" fill="#060313"/>
<path d="M83.8999 92.0256L84.3664 92.492V92.0256C84.3664 90.8458 84.2292 89.7483 83.9274 88.7331L83.8176 88.3215L83.4609 88.8428C83.7627 89.858 83.8999 90.9555 83.8999 92.0256Z" fill="#060313"/>
<path d="M85.7155 94.4393C85.1668 97.5123 83.5754 100.256 81.106 102.341C80.7219 102.671 79.9262 103.219 79.5146 103.494V104.07C79.5146 104.07 80.8591 103.219 81.4078 102.725C83.9321 100.558 85.6058 97.7318 86.1819 94.5216L85.7704 94.0552L85.7155 94.4393Z" fill="#060313"/>
<path d="M85.9328 88.1837L85.3018 87.7173L85.4664 88.3209C85.8231 89.6653 85.9877 90.9 85.9877 92.0524V92.5188L86.4541 92.0524C86.4541 90.6257 86.2346 89.391 85.9328 88.1837Z" fill="#060313"/>
<path d="M85.7969 94.0281L86.181 94.522H94.6866L94.1927 94.0281H85.7969Z" fill="#060313"/>
<path d="M92.1313 92.025H86.4518L85.9854 92.5189H92.5978L92.1313 92.025Z" fill="#060313"/>
<path d="M80.5221 71.7485C80.5221 76.6872 81.8666 81.5162 84.4182 85.7416L84.5006 85.8788L84.8298 85.4946C82.333 81.379 80.9886 76.6049 80.9886 71.7759L81.3727 59.1821C81.3727 57.2889 80.6867 55.5329 79.4795 54.1062V54.8745C80.4124 56.1366 80.8788 57.6182 80.8788 59.1547L80.5221 71.7485Z" fill="#060313"/>
<path d="M79.375 88.3757V88.7598L79.5122 88.8696L83.0791 86.5923L82.4206 86.4551L79.375 88.3757Z" fill="#060313"/>
<path d="M79.9811 79.3219L79.5146 77.6482V79.4591C80.2006 81.9559 81.0786 84.096 82.423 86.4556L83.0541 86.6202L82.8346 86.2361C81.545 83.9588 80.6945 81.901 79.9811 79.3219Z" fill="#060313"/>
<path d="M88.0135 78.6078L87.4922 78.8822L87.794 79.0468C89.0836 79.6778 89.9341 80.7479 90.2359 82.01L90.3182 82.3942L90.7024 81.9277C90.3731 80.4461 89.3579 79.2937 88.0135 78.6078Z" fill="#060313"/>
<path d="M90.7069 84.3975L90.3228 83.931L90.2405 84.2877C89.7466 86.2906 87.9632 87.69 85.9328 87.69H85.3018L85.9328 88.1564C88.2101 88.1838 90.1582 86.6199 90.7069 84.3975Z" fill="#060313"/>
<path d="M84.6715 85.9346C85.083 86.0992 85.4671 86.1815 85.8513 86.1815C87.4975 86.1815 88.8419 84.8097 88.8419 83.136C88.8419 81.5172 87.4701 80.1727 85.8513 80.1727L85.2476 80.694C85.4397 80.6392 85.6592 80.6392 85.8513 80.6392C87.1957 80.6392 88.3481 81.7915 88.3481 83.136C88.3481 84.5627 87.1957 85.6877 85.8513 85.6877C85.522 85.6877 85.1653 85.6053 84.8361 85.4956L84.5068 85.8797L84.6715 85.9346Z" fill="#060313"/>
<path d="M70.4865 70.1578L71.5291 78.9103L71.0078 78.6359L69.9926 70.2401C69.6634 67.5786 68.5659 65.1641 66.8922 63.1338L66.4258 61.8168L67.2763 62.832C69.0323 64.9172 70.1298 67.4414 70.4865 70.1578Z" fill="#060313"/>
<path d="M73.2306 80.1717L72.0233 69.9924C71.4746 65.3554 68.7857 61.1849 64.8073 58.7156L64.3408 57.8925C68.868 60.3893 71.8861 64.8341 72.5172 69.9375L73.7793 80.7204L73.1757 80.1991C73.2031 80.1717 73.2031 80.1717 73.2306 80.1717Z" fill="#060313"/>
<path d="M66.8922 81.9005L66.4258 82.3943V61.7888L66.8922 63.1058V81.9005Z" fill="#060313"/>
<path d="M66.8922 84.3975V92.0251L66.4258 92.5189V83.931L66.8922 84.3975Z" fill="#060313"/>
<path d="M64.8347 58.7159V94.0279L64.3408 94.5218V57.8654L64.8347 58.7159Z" fill="#060313"/>
<path d="M66.4258 83.931H68.7031L68.319 84.3975H66.8922L66.4258 83.931Z" fill="#060313"/>
<path d="M66.8922 81.901H68.319L68.7031 82.3949H66.4258L66.8922 81.901Z" fill="#060313"/>
<path d="M78.6887 92.0256V92.492L78.2223 92.0256C78.2223 90.4068 77.0699 89.0623 75.5334 88.8428L75.1768 88.3215L75.5883 88.3764C77.3992 88.6233 78.6887 90.1598 78.6887 92.0256Z" fill="#060313"/>
<path d="M78.2192 94.522H75.5303L74.9541 94.0281H78.6856L78.2192 94.522Z" fill="#060313"/>
<path d="M78.2212 92.025L78.6876 92.5189H74.6543L75.1207 92.025H78.2212Z" fill="#060313"/>
<path d="M75.0716 94.6039L74.9893 94.0552L75.5654 94.5216C75.8947 96.552 76.8276 98.4726 78.2543 99.9542L78.7208 101.134L77.8976 100.283C76.416 98.7744 75.4283 96.744 75.0716 94.6039Z" fill="#060313"/>
<path d="M75.1207 92.0256L74.6543 92.492V92.0256C74.6543 90.8458 74.7915 89.7483 75.0933 88.7331L75.203 88.3215L75.5597 88.8428C75.2579 89.858 75.1207 90.9555 75.1207 92.0256Z" fill="#060313"/>
<path d="M73.3141 94.4393C73.8628 97.5123 75.4542 100.256 77.9236 102.341C78.3077 102.671 79.1034 103.219 79.515 103.494V104.07C79.515 104.07 78.1705 103.219 77.6218 102.725C75.0975 100.558 73.4238 97.7318 72.8477 94.5216L73.2592 94.0552L73.3141 94.4393Z" fill="#060313"/>
<path d="M73.0897 88.1837L73.7207 87.7173L73.5561 88.3209C73.1994 89.6653 73.0348 90.9 73.0348 92.0524V92.5188L72.5684 92.0524C72.5684 90.6257 72.7879 89.391 73.0897 88.1837Z" fill="#060313"/>
<path d="M73.2306 94.0281L72.8464 94.522H64.3408L64.8347 94.0281H73.2306Z" fill="#060313"/>
<path d="M66.8922 92.025H72.5718L73.0382 92.5189H66.4258L66.8922 92.025Z" fill="#060313"/>
<path d="M78.4942 71.7485C78.4942 76.6872 77.1498 81.5162 74.5981 85.7416L74.5158 85.8788L74.1865 85.4946C76.6833 81.379 78.0278 76.6049 78.0278 71.7759L77.6436 59.1821C77.6436 57.2889 78.3296 55.5329 79.5368 54.1062V54.8745C78.604 56.1366 78.1375 57.6182 78.1375 59.1547L78.4942 71.7485Z" fill="#060313"/>
<path d="M79.5112 88.2934V88.8696L75.9443 86.5923L76.6028 86.4551L79.5112 88.2934Z" fill="#060313"/>
<path d="M79.0447 79.3219L79.5111 77.6482V79.4591C78.8252 81.9559 77.9472 84.096 76.6027 86.4556L75.9717 86.6202L76.1912 86.2361C77.4807 83.9588 78.3313 81.901 79.0447 79.3219Z" fill="#060313"/>
<path d="M71.0043 78.6078L71.5256 78.8822L71.2238 79.0468C69.9342 79.6778 69.0837 80.7479 68.7819 82.01L68.6996 82.3942L68.3154 81.9277C68.6447 80.4461 69.6599 79.2937 71.0043 78.6078Z" fill="#060313"/>
<path d="M68.3154 84.3975L68.6996 83.931L68.7819 84.2877C69.2757 86.2906 71.0592 87.69 73.0895 87.69H73.7206L73.0895 88.1564C70.8122 88.1838 68.8642 86.6199 68.3154 84.3975Z" fill="#060313"/>
<path d="M74.3551 85.9346C73.9435 86.0992 73.5594 86.1815 73.1753 86.1815C71.529 86.1815 70.1846 84.8097 70.1846 83.136C70.1846 81.5172 71.5564 80.1727 73.1753 80.1727L73.7789 80.694C73.5868 80.6392 73.3673 80.6392 73.1753 80.6392C71.8308 80.6392 70.6784 81.7915 70.6784 83.136C70.6784 84.5627 71.8308 85.6877 73.1753 85.6877C73.5045 85.6877 73.8612 85.6053 74.1904 85.4956L74.5197 85.8797L74.3551 85.9346Z" fill="#060313"/>
<path d="M78.2246 94.522L78.691 94.0281V101.134L78.2246 99.9546V94.522Z" fill="#060313"/>
<path d="M87.0055 69.9926L85.7982 80.1719C85.8257 80.1719 85.8257 80.1719 85.8531 80.1719C87.4719 80.1719 88.8438 81.5163 88.8438 83.1351C88.8438 84.8088 87.4994 86.1807 85.8531 86.1807C85.469 86.1807 85.0849 86.0984 84.6733 85.9337L84.5087 85.8789L84.4264 85.7417C81.8747 81.5163 80.5303 76.6873 80.5303 71.7486L80.9144 59.1822C80.9144 57.6183 80.4205 56.1641 79.5151 54.902C78.5822 56.1641 78.1158 57.6457 78.1158 59.1822L78.4999 71.7486C78.4999 76.6873 77.1554 81.5163 74.6038 85.7417L74.5214 85.8789L74.3568 85.9337C73.9453 86.0984 73.5611 86.1807 73.177 86.1807C71.5308 86.1807 70.1863 84.8088 70.1863 83.1351C70.1863 81.5163 71.5582 80.1719 73.177 80.1719C73.2045 80.1719 73.2045 80.1719 73.2319 80.1719L72.0246 69.9926C71.4759 65.3556 68.787 61.1852 64.8086 58.7158V94.0278H73.2319L73.3142 94.4119C73.863 97.4849 75.4543 100.229 77.9237 102.314C77.9511 102.341 78.1432 102.479 78.1706 102.506C78.7194 102.918 79.1858 103.411 79.5151 104.015C79.8718 103.411 80.3382 102.89 80.8869 102.479C80.9144 102.451 81.079 102.341 81.1064 102.314C83.5758 100.201 85.1672 97.4575 85.7159 94.4119L85.7982 94.0278H94.2215V58.7158C90.2157 61.1852 87.5542 65.3282 87.0055 69.9926ZM66.4274 61.7888L67.278 62.804C69.034 64.9166 70.1315 67.4409 70.4881 70.1572L71.5308 78.9097L71.229 79.0744C69.9394 79.7054 69.0888 80.7755 68.787 82.0376L68.7047 82.4217H66.4274V61.7888ZM73.5611 88.2933C73.2045 89.6378 73.0398 90.8725 73.0398 92.0248V92.4913H66.4274V83.9034H68.7047L68.787 84.26C69.2809 86.263 71.0643 87.6623 73.0947 87.6623H73.7258L73.5611 88.2933ZM76.1677 86.2081C77.4573 83.9582 78.3078 81.9004 79.0486 79.3213L79.5151 77.6476L79.9815 79.3213C80.6949 81.9004 81.5729 83.9857 82.8624 86.2081L83.0819 86.5922L79.5151 88.8695L75.9482 86.5922L76.1677 86.2081ZM74.6312 92.0248C74.6312 90.845 74.7684 89.7475 75.0702 88.7323L75.18 88.3208L75.5915 88.3757C77.4024 88.6226 78.6919 90.1591 78.6919 92.0248V92.4913H74.6312V92.0248ZM77.8688 100.284C76.4146 98.7745 75.3995 96.7441 75.0428 94.604L74.9604 94.0552H78.6919V101.162L77.8688 100.284ZM83.9599 94.604C83.6032 96.7715 82.5881 98.7745 81.1339 100.284L80.3108 101.134V94.0278H84.0422L83.9599 94.604ZM84.3715 92.5187H80.3382V92.0523C80.3382 90.1865 81.6552 88.65 83.4386 88.4031L83.8502 88.3482L83.9599 88.7598C84.2343 89.775 84.3989 90.8999 84.3989 92.0523V92.5187H84.3715ZM92.6027 92.5187H85.9903V92.0523C85.9903 90.8999 85.8257 89.6927 85.469 88.3208L85.3044 87.7172H85.9354C87.9932 87.7172 89.7767 86.3179 90.2431 84.3149L90.3254 83.9582H92.6027V92.5187ZM92.6027 82.3943H90.3254L90.2431 82.0102C89.9413 80.7481 89.0907 79.678 87.8012 79.0469L87.4994 78.8823L88.542 70.1298C88.8712 67.4409 89.9962 64.8892 91.7522 62.7765L92.6027 61.7613V82.3943Z" fill="#060313"/>
</g>
</svg>
